<?xml version="1.0" standalone="no"?>
<!DOCTYPE svg PUBLIC "-//W3C//DTD SVG 20010904//EN"
 "http://www.w3.org/TR/2001/REC-SVG-20010904/DTD/svg10.dtd">
<svg version="1.0" xmlns="http://www.w3.org/2000/svg"
 width="960.000000pt" height="960.000000pt" viewBox="0 0 960.000000 960.000000"
 preserveAspectRatio="xMidYMid meet">
<metadata>
Created by potrace 1.11, written by Peter Selinger 2001-2013
</metadata>
<g transform="translate(0.000000,960.000000) scale(0.100000,-0.100000)"
fill="#000000" stroke="none">
<path d="M0 4800 l0 -4800 4800 0 4800 0 0 4800 0 4800 -4800 0 -4800 0 0
-4800z m7951 4380 c77 -14 176 -66 229 -119 57 -58 105 -148 120 -229 18 -87
8 -232 -19 -304 -69 -180 -231 -289 -431 -291 -283 -2 -470 190 -470 484 0
114 20 189 74 273 57 90 167 165 271 186 58 11 164 12 226 0z m-6994 -33 c181
-52 284 -172 307 -355 31 -249 -82 -436 -305 -507 -75 -23 -93 -25 -290 -25
l-209 0 0 448 c0 247 3 452 8 456 13 14 432 0 489 -17z m648 -432 l0 -450
-117 -3 -118 -3 0 456 0 456 118 -3 117 -3 0 -450z m635 427 c66 -26 130 -88
154 -150 19 -50 21 -138 4 -196 -12 -39 -76 -115 -125 -147 -23 -14 -23 -14
78 -189 56 -96 103 -181 106 -187 4 -10 -26 -13 -129 -13 l-133 0 -84 163
c-92 178 -102 193 -125 184 -14 -6 -16 -31 -16 -177 l0 -170 -115 0 -115 0 0
448 c0 247 3 452 8 456 4 4 104 6 222 4 191 -4 221 -7 270 -26z m890 -77 l0
-105 -115 0 c-103 0 -115 -2 -115 -17 0 -10 0 -168 0 -350 l0 -333 -120 0
-120 0 0 350 0 350 -115 0 -115 0 0 105 0 105 350 0 350 0 0 -105z m475 83 c2
-13 12 -54 20 -93 9 -38 32 -140 51 -225 19 -85 37 -164 41 -175 4 -13 31 78
73 245 l66 265 118 0 119 0 58 -230 c33 -126 63 -246 68 -265 5 -22 10 -30 14
-20 5 14 83 350 108 468 l11 52 119 0 c81 0 119 -4 119 -11 0 -6 -39 -154 -86
-328 -47 -174 -97 -359 -110 -411 -14 -52 -30 -110 -36 -128 l-10 -33 -111 3
c-108 3 -111 4 -118 28 -4 14 -28 99 -53 190 -82 295 -90 320 -97 313 -4 -5
-13 -35 -22 -68 -18 -71 -81 -301 -109 -397 l-20 -68 -112 0 -113 0 -11 48
c-15 58 -41 157 -75 282 -97 353 -153 571 -149 575 3 3 58 5 123 5 115 0 119
-1 124 -22z m1523 -55 c31 -78 119 -304 251 -639 39 -99 71 -184 71 -187 0 -4
-57 -6 -127 -5 l-128 3 -30 82 -30 83 -151 0 -152 0 -28 -85 -28 -85 -127 0
-127 0 32 83 c18 45 100 250 181 455 l148 372 108 0 108 0 29 -77z m852 49
c59 -23 122 -77 147 -126 21 -40 28 -159 13 -214 -12 -48 -76 -124 -123 -148
l-28 -15 24 -42 c13 -23 59 -102 101 -175 42 -73 79 -139 83 -147 4 -13 -16
-15 -128 -15 l-134 0 -90 175 c-75 145 -93 175 -110 173 -19 -3 -20 -12 -23
-175 l-2 -173 -110 0 -110 0 -2 451 c-2 248 -1 453 2 456 3 3 102 3 220 1 191
-4 221 -7 270 -26z m771 4 c60 -22 124 -77 152 -130 31 -59 31 -193 0 -252
-24 -45 -95 -114 -118 -114 -8 0 -15 -3 -15 -8 0 -4 47 -90 105 -190 58 -101
105 -185 105 -187 0 -3 -60 -5 -133 -5 l-134 0 -89 173 c-70 136 -93 172 -109
172 -19 0 -20 -8 -23 -172 l-2 -173 -115 0 -115 0 0 448 c0 247 3 452 8 456 4
4 104 6 222 4 170 -4 225 -8 261 -22z m519 -431 l0 -455 -115 0 -115 0 0 455
0 455 115 0 115 0 0 -455z m1630 431 c73 -24 152 -102 168 -168 27 -107 9
-197 -54 -267 -24 -27 -55 -52 -69 -55 -14 -4 -25 -10 -25 -15 0 -4 47 -90
105 -190 58 -99 105 -183 105 -186 0 -3 -60 -5 -134 -5 l-135 0 -88 173 c-71
138 -92 173 -110 175 l-23 3 0 -175 0 -176 -110 0 -110 0 0 456 0 456 213 -4
c167 -4 224 -8 267 -22z m-3082 -1496 c19 0 23 -3 14 -9 -9 -5 4 -11 37 -15
54 -7 54 -8 45 -43 -6 -21 -12 -23 -70 -23 -50 0 -64 3 -64 15 0 10 -10 15
-30 15 -20 0 -30 -5 -30 -15 0 -8 -9 -15 -20 -15 -11 0 -20 7 -20 15 0 8 -6
15 -14 15 -8 0 -16 6 -19 14 -5 11 7 16 48 21 34 5 56 13 59 22 4 9 13 13 22
9 9 -3 28 -6 42 -6z m-202 -52 c-3 -13 -5 -26 -5 -30 -2 -15 -61 -9 -61 6 0
31 13 46 41 46 25 0 28 -3 25 -22z m368 7 c3 -8 11 -14 18 -13 7 2 13 -5 13
-14 0 -10 -3 -18 -7 -18 -5 0 -21 0 -36 0 -26 0 -28 3 -24 30 5 32 26 40 36
15z m-468 -107 c-3 -17 -7 -33 -9 -34 -1 -1 -29 -4 -62 -6 -40 -3 -59 -8 -57
-16 1 -8 -11 -12 -33 -12 -24 0 -35 5 -35 15 0 8 9 15 19 15 11 0 26 7 35 15
8 8 22 15 30 15 9 0 16 6 16 14 0 9 13 16 33 19 72 9 70 10 63 -25z m562 22
c6 0 12 -6 12 -14 0 -10 13 -16 38 -18 23 -2 36 -8 35 -15 -2 -9 10 -13 37
-13 29 0 40 -4 40 -15 0 -11 -11 -15 -40 -15 -27 0 -39 4 -37 13 1 8 -16 13
-55 15 -43 2 -58 7 -58 17 0 8 -7 15 -15 15 -9 0 -15 9 -15 21 0 17 4 20 23
15 12 -3 28 -6 35 -6z m-530 -127 l3 -33 -65 0 c-52 0 -66 3 -66 15 0 8 7 15
15 15 8 0 15 6 15 14 0 17 23 25 65 23 26 -2 30 -6 33 -34z m558 24 c8 -8 9
-56 2 -56 -51 -4 -98 1 -93 9 3 6 -1 13 -9 16 -21 8 -20 31 2 38 19 5 91 0 98
-7z m-287 -28 c52 -18 35 -29 -44 -29 -76 0 -97 12 -52 30 30 12 58 12 96 -1z
m566 -30 c8 -24 1 -34 -19 -26 -9 4 -12 14 -9 26 7 27 20 27 28 0z m1323 -61
c1 12 6 22 11 22 5 0 12 8 14 18 3 9 5 -26 5 -78 0 -52 -2 -87 -5 -77 -2 9 -9
17 -14 17 -5 0 -10 12 -10 28 l-2 27 -4 -27 c-7 -43 -40 -41 -83 4 l-30 31
-31 -34 -32 -34 -289 -2 c-159 -1 -292 -4 -296 -7 -3 -3 11 -6 32 -6 22 0 35
-4 31 -10 -3 -5 -21 -10 -39 -10 -25 0 -35 5 -39 20 -3 10 0 21 7 23 6 3 -2 8
-17 12 -33 9 -37 6 -41 -31 -5 -36 -1 -34 -33 -25 -14 4 -27 15 -29 25 -1 10
-10 23 -20 30 -16 12 -16 15 7 38 13 13 43 31 66 38 37 11 45 11 60 -2 24 -20
113 -13 113 9 0 13 21 14 163 8 144 -6 168 -5 197 10 20 11 35 13 39 7 3 -6
42 -13 87 -17 65 -6 87 -4 112 9 39 20 40 20 45 -6 3 -15 5 -9 7 17 l3 40 7
-45 c4 -25 8 -35 8 -22z m-1198 32 c0 -5 7 -10 15 -10 10 0 15 -10 15 -34 0
-19 5 -38 10 -41 16 -10 40 14 40 41 0 30 13 37 36 19 10 -8 33 -15 49 -15 67
-1 103 -31 75 -65 -8 -10 -8 -19 -1 -33 7 -13 7 -22 -1 -30 -21 -21 -28 -13
-28 29 0 28 -4 38 -12 33 -6 -4 -17 1 -24 11 -13 17 -15 17 -32 2 -10 -9 -23
-17 -29 -17 -6 0 -14 -7 -17 -16 -4 -10 -15 -14 -33 -12 -22 2 -27 -1 -25 -14
2 -15 -5 -18 -48 -18 -43 0 -50 -3 -50 -20 0 -11 -7 -20 -15 -20 -18 0 -20 36
-2 44 10 5 10 7 0 12 -7 3 -13 23 -13 45 0 29 -4 39 -16 39 -11 0 -14 8 -12
32 4 38 20 46 45 21 13 -13 18 -33 17 -75 0 -57 0 -58 28 -58 35 0 50 41 24
68 -15 18 -21 40 -18 75 2 18 22 25 22 7z m-1230 -26 c0 -8 4 -14 9 -14 6 0
22 -11 37 -25 26 -24 26 -40 1 -40 -7 0 -12 -7 -12 -15 0 -10 -12 -16 -32 -18
-25 -2 -33 -8 -33 -23 0 -24 -30 -26 -31 -1 -2 31 3 47 17 55 8 4 14 17 14 27
0 11 5 20 10 20 6 0 10 5 10 11 0 5 -4 7 -10 4 -11 -7 -14 28 -4 38 10 9 24
-2 24 -19z m1004 -8 c4 -19 13 -37 21 -40 8 -3 15 -12 15 -20 0 -7 7 -16 15
-20 8 -3 15 -17 15 -31 0 -21 -5 -25 -30 -25 -18 0 -29 5 -27 12 1 7 -8 14
-21 16 -13 2 -26 10 -29 18 -3 8 -11 14 -19 14 -16 0 -17 5 -8 49 4 17 12 31
19 31 7 0 15 7 19 15 9 25 23 17 30 -19z m-1134 10 c0 -2 -7 -7 -16 -10 -8 -3
-12 -2 -9 4 6 10 25 14 25 6z m-8 -76 c-2 -27 -8 -47 -13 -44 -5 3 -9 -4 -9
-15 0 -12 7 -21 16 -21 8 0 12 -4 9 -10 -3 -5 -20 -10 -37 -10 -23 0 -29 4
-24 15 3 8 1 15 -5 15 -12 0 -8 32 5 41 5 4 -1 12 -12 18 -14 7 -23 8 -27 1
-10 -17 -85 -12 -85 5 0 11 11 15 36 15 19 0 42 6 50 14 9 10 26 13 49 9 23
-4 35 -2 35 6 0 6 3 11 8 11 4 0 5 -22 4 -50z m-539 13 c-29 -3 -43 -9 -43
-19 0 -16 -2 -16 -24 -8 -41 16 -5 32 69 31 l40 0 -42 -4z m-283 -23 c0 -17 7
-20 40 -20 71 0 43 -18 -37 -24 -73 -5 -612 -11 -716 -8 -30 1 -46 6 -42 12 4
6 16 10 28 9 12 -1 38 -1 57 1 34 3 34 3 -10 10 -37 6 -30 7 40 8 56 0 76 -3
60 -8 -14 -4 87 -8 232 -9 141 -1 263 2 272 5 9 3 16 15 16 25 0 14 7 19 30
19 23 0 30 -4 30 -20z m1560 -12 c0 -11 -7 -18 -20 -18 -11 0 -19 -5 -17 -12
1 -6 -7 -14 -17 -16 -14 -3 -17 0 -13 12 7 17 -6 20 -71 16 -47 -2 -92 10 -92
25 0 10 25 13 115 12 104 -1 115 -2 115 -19z m-1757 -5 c-23 -2 -64 -2 -90 0
-26 2 -7 3 42 3 50 0 71 -1 48 -3z m517 -23 c0 -17 -7 -20 -49 -20 -28 0 -53
6 -60 13 -16 21 -3 27 56 27 46 0 53 -2 53 -20z m143 13 c-13 -2 -33 -2 -45 0
-13 2 -3 4 22 4 25 0 35 -2 23 -4z m277 -17 c0 -3 -4 -8 -10 -11 -5 -3 -10 -1
-10 4 0 6 5 11 10 11 6 0 10 -2 10 -4z m1580 -6 c0 -5 -2 -10 -4 -10 -3 0 -8
5 -11 10 -3 6 -1 10 4 10 6 0 11 -4 11 -10z m-2957 -27 c-7 -2 -19 -2 -25 0
-7 3 -2 5 12 5 14 0 19 -2 13 -5z m2652 -62 c3 -5 1 -12 -5 -16 -5 -3 -10 1
-10 9 0 18 6 21 15 7z m-725 -72 c0 -46 -2 -51 -20 -46 -14 3 -20 0 -20 -11 0
-20 -12 -8 -15 15 -4 32 -17 63 -26 63 -5 0 -9 7 -9 15 0 11 12 15 45 15 l45
0 0 -51z m502 32 c-1 -7 7 -15 18 -18 27 -7 20 -25 -13 -34 -34 -9 -108 11
-81 22 17 7 17 8 2 8 -11 1 -18 9 -18 22 0 18 5 20 48 17 31 -3 46 -8 44 -17z
m-676 -34 c4 -4 2 -7 -4 -7 -5 0 -17 -3 -26 -6 -11 -4 -16 -1 -16 10 0 16 32
18 46 3z m-221 -144 c-8 -33 -6 -31 -25 -33 -32 -5 -40 1 -40 30 0 28 3 30 36
30 34 0 36 -1 29 -27z m865 -83 c0 -5 -11 -10 -25 -10 -14 0 -25 5 -25 10 0 6
11 10 25 10 14 0 25 -4 25 -10z m-606 -45 c-4 -8 -8 -15 -10 -15 -2 0 -4 7 -4
15 0 8 4 15 10 15 5 0 7 -7 4 -15z m-148 -31 c13 -14 24 -29 24 -33 0 -5 21
-11 46 -14 26 -2 50 -11 54 -18 5 -6 34 -14 65 -17 51 -4 57 -3 62 17 4 15 13
21 34 21 37 0 39 -25 3 -34 -15 -4 -33 -14 -41 -21 -8 -8 -23 -15 -34 -15 -10
0 -19 -7 -19 -15 0 -12 -15 -15 -71 -15 -59 0 -70 3 -65 15 4 12 -3 15 -29 15
-22 0 -35 5 -35 13 0 7 -9 20 -20 30 -11 9 -20 28 -20 41 0 13 -6 27 -12 29
-10 4 -9 8 2 16 22 16 30 14 56 -15z m936 15 c17 -9 18 -13 7 -20 -8 -4 -15
-13 -15 -19 -1 -5 -2 -15 -3 -21 0 -5 -6 -7 -11 -4 -6 4 -15 -7 -21 -23 -6
-17 -17 -33 -25 -36 -8 -3 -14 -12 -14 -21 0 -11 -11 -15 -45 -15 -33 0 -45
-4 -45 -15 0 -10 -10 -15 -30 -15 -18 0 -33 6 -36 15 -4 9 -19 15 -41 15 -27
0 -34 3 -29 15 4 10 -1 15 -15 15 -11 0 -22 6 -25 14 -3 8 -19 18 -35 21 -16
4 -29 13 -29 21 0 11 -18 14 -85 14 -67 0 -85 3 -85 14 0 17 33 22 113 18 41
-3 57 -8 57 -18 0 -9 12 -14 35 -14 23 0 41 -7 52 -20 10 -11 25 -20 35 -20
10 0 18 -7 18 -15 0 -10 10 -15 34 -15 19 0 41 7 50 15 8 8 22 15 30 15 9 0
24 9 33 20 10 11 25 20 35 20 10 0 18 6 18 14 0 8 7 16 15 20 8 3 15 12 15 21
0 18 14 19 42 4z m-384 -148 c3 -8 -1 -12 -9 -9 -7 2 -15 10 -17 17 -3 8 1 12
9 9 7 -2 15 -10 17 -17z m-228 5 c0 -3 -4 -8 -10 -11 -5 -3 -10 -1 -10 4 0 6
5 11 10 11 6 0 10 -2 10 -4z m203 -66 c20 -11 44 -20 52 -20 8 0 15 -6 15 -14
0 -8 11 -17 25 -20 14 -4 34 -15 45 -26 24 -24 27 -70 5 -70 -8 0 -15 -9 -15
-20 0 -11 -4 -20 -9 -20 -5 0 -15 -14 -23 -31 l-15 -31 -22 35 c-11 19 -24 48
-27 65 -4 18 -10 29 -15 27 -12 -8 -24 17 -20 43 1 15 -3 22 -13 22 -9 0 -16
-7 -16 -15 0 -8 -9 -15 -20 -15 -11 0 -20 -7 -20 -15 0 -8 7 -15 15 -15 8 0
17 -14 21 -35 3 -19 12 -39 20 -46 20 -17 19 -119 -1 -119 -10 0 -15 -10 -15
-34 0 -19 -7 -42 -16 -50 -22 -22 -83 -21 -91 2 -4 9 -11 20 -16 24 -23 15
-20 237 2 223 5 -3 11 11 13 30 4 32 2 35 -21 35 -13 0 -21 -3 -18 -7 4 -3 -2
-13 -13 -20 -11 -8 -18 -19 -15 -24 4 -5 -1 -9 -9 -9 -8 0 -14 -8 -14 -17 2
-28 -11 -73 -22 -73 -5 0 -12 11 -16 25 -3 14 -12 25 -20 25 -8 0 -14 9 -14
20 0 11 -7 20 -15 20 -10 0 -15 11 -15 35 0 24 5 35 15 35 8 0 15 7 15 15 0
10 10 15 30 15 20 0 30 5 30 15 0 8 7 15 15 15 7 0 18 6 22 14 17 30 154 34
206 6z m357 0 c0 -5 -4 -10 -10 -10 -5 0 -10 5 -10 10 0 6 5 10 10 10 6 0 10
-4 10 -10z m110 -22 c0 -30 -13 -58 -26 -58 -8 0 -14 -7 -14 -15 0 -9 -7 -18
-15 -21 -8 -4 -15 -12 -15 -20 0 -9 -11 -14 -30 -14 -17 0 -33 -6 -36 -14 -3
-8 -19 -18 -35 -21 -16 -4 -29 -13 -29 -21 0 -8 -9 -14 -20 -14 -11 0 -20 -7
-20 -15 0 -8 -7 -15 -16 -15 -12 0 -14 11 -11 61 3 34 9 64 15 68 6 3 12 19
14 35 5 43 24 43 32 1 7 -34 10 -36 39 -33 18 2 31 8 30 14 -1 7 13 15 32 18
21 4 35 13 35 21 0 8 6 15 14 15 7 0 16 9 19 20 6 22 37 28 37 8z m-1070 -12
c0 -13 34 -30 53 -27 5 1 6 -3 2 -8 -3 -6 6 -13 20 -17 14 -3 25 -12 25 -20 0
-9 12 -14 35 -14 33 0 35 2 35 35 0 41 4 43 36 13 21 -20 24 -32 24 -100 0
-47 -4 -78 -10 -78 -6 0 -13 6 -16 14 -3 8 -15 16 -26 19 -11 3 -17 10 -14 16
3 5 -8 12 -25 16 -17 4 -33 13 -36 21 -3 8 -18 14 -34 14 -19 0 -29 5 -29 15
0 9 -9 19 -21 23 -11 5 -20 11 -20 15 4 31 -1 47 -14 47 -8 0 -15 7 -15 15 0
8 7 15 15 15 8 0 15 -6 15 -14z m163 -231 c7 -16 -8 -29 -23 -20 -15 9 -12 35
4 35 8 0 16 -7 19 -15z m737 -11 c0 -8 -7 -14 -15 -14 -15 0 -21 21 -9 33 10
9 24 -2 24 -19z m-640 -59 c0 -9 -9 -15 -25 -15 -16 0 -25 6 -25 15 0 9 9 15
25 15 16 0 25 -6 25 -15z m530 -1 c0 -8 -5 -12 -10 -9 -6 4 -8 11 -5 16 9 14
15 11 15 -7z m30 12 c0 -3 -4 -8 -10 -11 -5 -3 -10 -1 -10 4 0 6 5 11 10 11 6
0 10 -2 10 -4z m146 -61 c3 -20 12 -35 20 -35 8 0 14 -7 14 -15 0 -8 -7 -15
-15 -15 -8 0 -15 -9 -15 -20 0 -13 -7 -20 -20 -20 -11 0 -20 -7 -20 -15 0 -8
-7 -15 -15 -15 -8 0 -15 -7 -15 -15 0 -8 7 -15 15 -15 8 0 15 7 15 15 0 8 9
15 20 15 11 0 20 6 20 13 0 16 45 58 54 50 11 -11 6 -23 -9 -23 -8 0 -15 -9
-15 -20 0 -11 -7 -20 -15 -20 -8 0 -15 -7 -15 -15 0 -8 -7 -15 -15 -15 -8 0
-15 -7 -15 -15 0 -9 -8 -19 -17 -22 -10 -4 -22 -13 -26 -20 -5 -7 -13 -11 -18
-7 -6 3 -13 -3 -16 -15 -3 -12 -9 -21 -14 -21 -5 0 -9 -7 -9 -15 0 -12 13 -15
59 -15 43 0 60 4 65 15 3 9 18 15 38 15 19 0 42 6 53 14 11 7 38 16 59 19 22
4 43 12 47 19 12 19 226 18 238 -1 5 -8 36 -17 72 -21 35 -4 60 -8 54 -9 -20
-3 21 -21 48 -21 17 0 27 -5 27 -14 0 -8 13 -17 29 -21 16 -3 32 -13 35 -21 3
-8 13 -14 22 -14 11 0 15 -6 11 -20 -5 -20 15 -45 26 -33 4 3 7 -3 7 -15 0
-13 -6 -22 -15 -22 -8 0 -15 7 -15 15 0 8 -7 15 -15 15 -8 0 -15 7 -15 15 0 8
-9 15 -20 15 -11 0 -20 7 -20 15 0 10 -10 15 -30 15 -20 0 -30 5 -30 15 0 12
-21 15 -125 17 -267 3 -414 -2 -390 -12 22 -9 22 -9 -50 -16 -128 -12 -120
-34 13 -34 66 0 82 3 82 15 0 13 29 15 200 15 171 0 200 -2 200 -15 0 -11 12
-15 50 -15 34 0 52 -5 58 -15 4 -9 18 -17 30 -18 12 -1 22 -7 22 -15 0 -8 9
-16 20 -19 11 -3 20 -14 20 -24 0 -11 6 -19 14 -19 8 0 17 -11 20 -25 9 -36
83 -50 94 -17 2 8 -7 12 -27 12 -24 0 -31 4 -31 19 0 10 -9 21 -20 24 -11 3
-20 10 -20 16 0 16 29 13 46 -4 9 -8 25 -15 36 -15 11 0 22 -8 25 -20 3 -11 9
-20 14 -20 5 0 9 -7 9 -15 0 -9 -6 -12 -15 -9 -10 4 -15 0 -15 -15 0 -12 -6
-21 -15 -21 -8 0 -15 -7 -15 -15 0 -8 -7 -15 -15 -15 -10 0 -16 -16 -21 -51
-4 -33 -10 -46 -15 -37 -6 9 -9 4 -9 -15 0 -20 -6 -30 -20 -34 -11 -3 -20 -12
-20 -19 0 -8 -9 -14 -20 -14 -13 0 -20 7 -20 19 0 30 11 51 26 51 8 0 14 9 14
20 0 11 5 20 11 20 5 0 8 4 4 9 -3 5 0 13 6 17 17 10 -10 24 -49 24 -25 0 -35
5 -39 20 -3 11 -12 20 -19 20 -8 0 -14 6 -14 14 0 7 -9 16 -21 19 -12 3 -18
10 -14 16 3 7 -2 11 -15 11 -11 0 -28 9 -37 20 -21 24 -83 28 -83 6 0 -8 -13
-17 -29 -21 -16 -3 -32 -13 -35 -21 -3 -8 -12 -14 -21 -14 -10 0 -15 -10 -15
-30 0 -20 -5 -30 -15 -30 -11 0 -15 -11 -15 -35 0 -23 -6 -38 -15 -42 -12 -4
-15 -20 -13 -75 2 -75 13 -99 20 -43 2 20 0 35 -7 36 -5 0 -4 3 3 6 6 2 12 11
12 19 0 8 6 17 14 20 8 3 17 20 20 39 4 18 13 36 21 39 8 3 15 12 15 21 0 8 6
15 14 15 7 0 16 13 19 29 4 20 14 31 32 35 36 9 95 -3 95 -20 0 -8 9 -14 20
-14 13 0 20 -7 20 -20 0 -11 6 -19 13 -17 15 3 21 -43 12 -90 -5 -27 -12 -35
-36 -40 l-29 -5 0 -78 c0 -72 -2 -78 -22 -84 -44 -11 -70 -7 -75 14 -3 11 -12
20 -19 20 -8 0 -14 9 -14 20 0 11 -7 20 -15 20 -8 0 -15 7 -15 15 0 8 -4 15
-9 15 -5 0 -12 8 -14 18 -3 9 -5 4 -6 -13 -3 -62 -11 -75 -47 -75 -22 0 -34
-5 -34 -14 0 -8 -7 -16 -15 -20 -8 -3 -15 -9 -14 -13 5 -28 -3 -53 -16 -53 -8
0 -15 -9 -15 -20 0 -11 -7 -20 -15 -20 -8 0 -15 -7 -15 -15 0 -8 -9 -15 -20
-15 -11 0 -20 -7 -20 -15 0 -22 -17 -18 -30 5 -6 11 -14 18 -19 16 -4 -3 -15
4 -24 15 -9 10 -26 19 -37 19 -11 0 -20 7 -20 15 0 8 -9 15 -20 15 -12 0 -20
7 -20 18 0 13 -2 14 -9 4 -7 -11 -9 -11 -14 2 -4 9 -13 16 -22 16 -8 0 -15 4
-15 9 0 5 -13 12 -30 16 -16 4 -30 13 -30 21 0 8 -9 14 -20 14 -11 0 -20 6
-20 14 0 8 -12 17 -27 21 -15 3 -31 12 -35 18 -4 7 -35 13 -70 14 -107 3 -128
7 -128 20 0 7 6 12 13 11 8 -2 13 13 15 45 2 28 -1 47 -7 47 -6 0 -11 -6 -12
-12 0 -7 -4 -3 -9 10 -12 27 -2 82 14 79 6 -1 11 5 11 13 0 12 -16 16 -68 18
-52 2 -67 6 -65 17 2 8 -6 21 -17 29 -20 15 -20 15 3 16 12 0 30 9 39 20 10
11 28 20 42 20 13 0 29 7 35 15 6 8 22 16 36 18 37 6 31 31 -7 35 -18 2 -33
-1 -33 -7 0 -6 -7 -8 -15 -4 -10 3 -15 0 -13 -8 2 -10 -9 -15 -34 -17 -25 -2
-38 -8 -38 -18 0 -16 -75 -20 -85 -4 -8 13 24 60 41 60 8 0 13 6 12 13 -2 7 9
13 25 15 17 2 27 10 28 20 1 15 2 15 6 0 6 -25 82 -26 79 -1 -2 9 -8 19 -14
21 -7 2 -10 8 -6 13 3 5 0 9 -5 9 -6 0 -11 9 -11 20 0 11 7 20 15 20 8 0 15
-9 15 -20 0 -11 6 -20 13 -20 7 0 18 -13 24 -30 6 -16 18 -30 27 -30 9 0 16
-4 16 -10 0 -5 4 -10 9 -10 15 0 24 40 12 54 -6 7 -8 15 -5 18 3 4 -8 9 -25
13 -26 5 -31 11 -31 35 0 19 -6 29 -20 33 -31 8 -14 37 21 37 19 0 29 5 29 15
0 10 11 15 35 15 24 0 35 5 35 15 0 8 9 15 20 15 11 0 28 9 37 20 10 11 23 20
30 20 7 0 13 4 13 10 0 5 11 12 25 16 14 3 25 10 25 15 0 5 11 14 25 19 14 5
25 14 25 20 0 5 7 10 15 10 8 0 19 9 25 20 18 33 48 25 56 -15z m-636 10 c0
-8 7 -15 16 -15 26 0 10 -23 -19 -27 -28 -4 -34 8 -21 41 8 20 24 21 24 1z
m400 -35 c0 -33 -11 -38 -30 -15 -15 18 -6 45 15 45 10 0 15 -10 15 -30z
m-300 -20 c0 -5 -5 -10 -11 -10 -5 0 -7 5 -4 10 3 6 8 10 11 10 2 0 4 -4 4
-10z m1500 -75 c0 -8 7 -15 15 -15 8 0 15 -9 15 -20 0 -11 7 -20 15 -20 8 0
15 -4 15 -10 0 -18 -49 -6 -54 13 -2 11 -9 16 -15 12 -6 -3 -11 -3 -11 2 0 4
-3 18 -6 31 -5 16 -2 22 10 22 9 0 16 -7 16 -15z m-2672 -92 c4 -6 19 -14 34
-18 15 -4 29 -13 32 -21 3 -8 19 -14 36 -14 17 0 33 -6 36 -14 3 -8 19 -18 34
-21 21 -5 30 -14 35 -36 4 -16 13 -29 21 -29 8 0 14 -8 14 -17 0 -23 29 -53
52 -53 10 0 18 7 18 15 0 11 12 15 45 15 39 0 45 -3 51 -25 8 -31 -3 -95 -16
-95 -6 0 -10 -25 -10 -55 0 -30 5 -55 10 -55 6 0 10 -7 10 -16 0 -9 9 -18 20
-21 11 -3 20 -9 20 -14 0 -4 15 -9 33 -11 31 -3 32 -4 32 -53 0 -47 -1 -50
-25 -47 -14 1 -30 9 -36 17 -8 11 -31 15 -79 15 -56 0 -66 3 -61 15 4 11 -2
15 -27 16 -34 0 -84 17 -57 19 12 0 11 3 -2 11 -10 5 -18 17 -18 24 0 8 -7 15
-15 15 -8 0 -15 7 -15 16 0 8 -5 12 -11 9 -6 -4 -13 2 -16 14 -3 12 -11 21
-18 21 -7 0 -15 9 -18 20 -3 11 -12 20 -21 20 -9 0 -16 7 -16 15 0 10 -10 15
-30 15 -17 0 -33 7 -38 17 -8 14 -32 17 -156 21 -100 3 -146 8 -145 16 4 29
-2 46 -16 46 -11 0 -15 11 -16 38 0 20 -3 31 -6 25 -8 -22 -23 -14 -23 12 0
16 6 25 15 25 8 0 15 5 15 11 0 15 42 59 58 59 6 0 12 6 12 14 0 8 15 17 35
20 19 4 35 11 35 16 0 13 37 18 113 16 38 -1 71 -7 75 -13z m2764 -45 c-9 -9
-12 -7 -12 12 0 19 3 21 12 12 9 -9 9 -15 0 -24z m-2092 -28 c0 -14 -7 -20
-21 -20 -11 0 -17 -4 -14 -10 3 -5 -2 -10 -11 -10 -10 0 -14 3 -11 7 4 3 2 12
-4 19 -16 19 -2 34 32 34 22 0 29 -5 29 -20z m2130 5 c0 -8 -4 -15 -10 -15 -5
0 -10 7 -10 15 0 8 5 15 10 15 6 0 10 -7 10 -15z m32 -47 c-6 -6 -15 -9 -18
-5 -4 3 -4 14 0 23 5 13 9 15 18 6 9 -9 9 -15 0 -24z m-2062 7 c0 -10 11 -15
35 -15 24 0 35 -5 35 -15 0 -11 -12 -15 -48 -15 -47 0 -49 1 -49 30 0 18 6 30
14 30 7 0 13 -7 13 -15z m2100 -30 c0 -8 -7 -15 -15 -15 -8 0 -15 7 -15 15 0
8 7 15 15 15 8 0 15 -7 15 -15z m-1960 -28 c0 -7 14 -18 30 -24 23 -9 30 -18
30 -37 0 -34 -28 -35 -63 -2 -22 21 -32 44 -28 69 2 13 31 8 31 -6z m2000 -2
c0 -8 -9 -15 -20 -15 -20 0 -26 11 -13 23 12 13 33 7 33 -8z m108 -42 c7 -7
22 -13 33 -13 10 0 19 -7 19 -15 0 -8 9 -15 20 -15 11 0 20 -6 20 -14 0 -8 13
-17 29 -21 16 -3 32 -13 35 -21 4 -10 16 -14 33 -12 23 2 29 -1 31 -21 5 -30
-6 -71 -18 -71 -6 0 -10 7 -10 15 0 8 -7 15 -15 15 -8 0 -15 7 -15 15 0 8 -9
15 -20 15 -11 0 -20 7 -20 15 0 8 -9 15 -20 15 -34 0 -35 1 -42 21 -4 10 -14
19 -23 19 -8 0 -15 7 -15 15 0 10 -11 15 -35 15 -24 0 -35 5 -35 14 0 8 -13
17 -30 21 -29 6 -37 15 -24 27 9 10 88 -5 102 -19z m-3533 3 c7 -7 15 -22 17
-32 2 -16 -2 -18 -29 -16 -25 3 -33 0 -33 -12 0 -9 -7 -16 -15 -16 -10 0 -15
10 -15 30 0 22 4 28 15 24 10 -4 15 0 15 15 0 24 24 28 45 7z m165 -67 c0 -5
-9 -9 -20 -9 -19 0 -26 11 -14 23 8 8 34 -3 34 -14z m1420 1 c6 -11 18 -20 26
-20 11 0 14 -6 9 -22 -10 -30 -25 -47 -25 -26 0 10 -12 18 -35 22 -31 6 -35
11 -35 36 0 25 4 30 25 30 14 0 29 -8 35 -20z m-1730 -35 c0 -8 7 -15 15 -15
8 0 15 -7 15 -15 0 -8 6 -15 14 -15 8 0 17 -13 21 -30 4 -16 13 -30 21 -30 8
0 14 -9 14 -20 0 -11 7 -20 15 -20 8 0 15 -7 15 -15 0 -9 7 -18 15 -21 8 -4
15 -12 15 -20 0 -10 -13 -14 -45 -14 -45 0 -60 -12 -29 -24 24 -9 54 -7 54 4
0 6 7 10 15 10 8 0 15 -4 15 -10 0 -5 7 -10 15 -10 8 0 15 7 15 15 0 11 11 15
40 15 31 0 38 -3 34 -15 -7 -17 -3 -18 21 -9 13 5 14 8 3 15 -7 5 27 8 82 7
52 0 85 -3 72 -5 -48 -9 -7 -23 71 -23 101 0 164 -9 145 -21 -8 -6 6 -9 37
-11 28 -1 57 -2 65 -4 8 -1 25 -2 38 -3 13 -1 21 -5 18 -10 -6 -9 49 -21 97
-21 15 0 30 -7 33 -15 4 -10 20 -15 44 -15 21 0 43 -6 49 -14 7 -8 27 -17 45
-20 19 -4 36 -13 39 -21 3 -7 21 -15 39 -17 20 -2 32 -8 31 -15 -2 -8 8 -13
26 -13 36 0 63 -9 56 -20 -3 -4 7 -11 21 -14 15 -4 33 -14 41 -21 8 -8 23 -15
34 -15 11 0 17 -5 14 -10 -3 -6 5 -14 19 -20 14 -5 26 -14 26 -19 0 -5 14 -12
30 -16 17 -4 30 -13 30 -21 0 -8 7 -14 15 -14 8 0 15 -7 15 -15 0 -8 9 -15 20
-15 11 0 20 -7 20 -15 0 -8 7 -15 15 -15 8 0 15 -6 15 -14 0 -7 9 -16 20 -19
11 -3 20 -12 20 -20 0 -10 11 -17 28 -19 15 -2 27 -7 28 -13 2 -25 19 -47 43
-57 15 -6 21 -12 14 -15 -22 -8 -15 -43 7 -43 13 0 26 -12 37 -35 9 -19 20
-32 24 -29 4 2 10 -5 14 -16 7 -22 20 -26 30 -10 3 6 0 13 -8 16 -35 13 -20
74 18 74 21 0 29 52 11 66 -20 14 -20 24 -1 24 8 0 15 6 15 14 0 24 22 30 37
11 9 -14 13 -15 13 -4 1 11 3 10 10 -2 8 -13 20 -15 55 -11 41 4 47 2 52 -17
3 -11 12 -21 19 -21 9 0 14 -11 14 -30 0 -18 -5 -30 -13 -30 -7 0 -20 -9 -30
-20 -9 -11 -26 -20 -37 -20 -11 0 -20 -7 -20 -15 0 -8 -7 -15 -15 -15 -7 0
-18 -7 -23 -16 -6 -10 -24 -18 -48 -19 -40 -3 -57 -21 -30 -31 10 -4 16 -18
16 -35 0 -16 6 -32 14 -35 8 -3 17 -17 21 -32 4 -15 10 -29 14 -32 20 -13 79
-140 85 -182 5 -35 12 -48 24 -49 41 -4 75 2 89 16 8 8 30 15 49 15 22 0 34 5
34 14 0 8 15 17 35 20 19 4 35 11 35 16 0 5 9 11 20 15 11 3 35 22 55 41 19
19 39 34 44 34 5 0 11 7 15 15 3 8 13 15 21 15 9 0 14 4 10 9 -3 5 2 16 11 25
18 18 36 75 28 87 -3 5 -18 9 -35 9 -19 0 -29 5 -29 15 0 10 10 15 29 15 16 0
31 5 33 12 7 20 -4 58 -16 58 -6 0 -19 9 -29 20 -9 11 -28 20 -41 20 -13 0
-29 7 -36 15 -7 8 -19 15 -26 15 -8 0 -14 7 -14 15 0 8 -7 15 -16 15 -10 0
-14 6 -10 15 3 9 0 15 -9 15 -7 0 -20 6 -27 13 -7 7 -21 16 -30 20 -10 3 -18
13 -18 21 0 7 -9 16 -21 19 -12 3 -18 10 -14 16 4 7 -7 11 -29 11 -29 0 -36 4
-36 20 0 11 -7 20 -15 20 -8 0 -15 7 -15 15 0 10 -10 15 -29 15 -24 0 -31 5
-36 29 -5 23 -13 30 -41 35 -19 4 -34 13 -34 21 0 10 -15 13 -57 13 -112 -1
-133 1 -133 17 0 8 14 17 35 21 19 3 32 10 29 15 -3 5 19 9 50 9 30 0 56 -5
58 -11 2 -5 22 -13 46 -16 26 -3 42 -11 42 -19 0 -8 9 -14 20 -14 11 0 20 -6
20 -14 0 -15 30 -26 73 -26 15 0 27 -4 27 -9 0 -5 14 -11 30 -14 18 -4 30 -13
30 -22 0 -8 9 -15 20 -15 11 0 20 -6 20 -14 0 -7 9 -16 21 -19 12 -3 18 -10
15 -16 -3 -5 7 -12 23 -16 16 -3 32 -13 35 -21 3 -8 12 -14 21 -14 8 0 15 -9
15 -20 0 -11 6 -20 14 -20 8 0 16 -7 20 -15 3 -8 12 -15 21 -15 8 0 14 -6 13
-12 -2 -8 10 -14 30 -16 24 -2 32 1 32 12 0 10 9 16 25 16 14 0 33 9 42 20 10
11 27 20 39 20 12 0 25 7 28 16 8 20 71 15 71 -6 1 -8 7 -14 14 -12 7 1 15 -7
18 -18 3 -11 12 -20 19 -20 8 0 14 -7 14 -15 0 -8 7 -15 15 -15 24 0 17 24
-15 50 -33 28 -38 51 -13 71 15 12 16 12 8 -1 -8 -13 -6 -13 8 -2 13 11 19 11
30 1 8 -8 12 -21 9 -31 -3 -12 1 -18 11 -18 10 0 15 7 12 20 -4 21 16 41 23
22 2 -7 16 -12 30 -12 23 0 71 -19 50 -20 -12 0 8 -45 21 -46 6 -1 18 -2 26
-3 10 -1 15 -11 15 -30 0 -28 -1 -29 -61 -33 -33 -2 -64 -9 -67 -15 -4 -6 -28
-13 -54 -17 -32 -5 -48 -12 -48 -22 0 -9 -11 -14 -30 -14 -18 0 -33 -6 -36
-15 -4 -8 -12 -15 -19 -15 -7 0 -15 -9 -18 -21 -3 -12 -10 -18 -17 -14 -7 4
-14 -2 -17 -14 -4 -15 -13 -21 -33 -21 -22 0 -29 -5 -33 -29 -4 -21 -15 -32
-37 -39 -23 -8 -30 -17 -30 -36 0 -16 -6 -26 -15 -26 -8 0 -15 -7 -15 -16 0
-9 -9 -18 -20 -21 -11 -3 -20 -12 -20 -19 0 -8 -7 -14 -15 -14 -8 0 -15 -7
-15 -15 0 -8 -5 -15 -11 -15 -7 0 -27 -16 -46 -35 -19 -19 -43 -35 -54 -35
-11 0 -22 -7 -25 -15 -4 -8 -17 -15 -30 -15 -14 0 -27 -7 -30 -15 -3 -8 -21
-17 -40 -21 -22 -4 -34 -12 -34 -23 0 -14 -2 -14 -10 -1 -7 11 -10 12 -10 2 0
-10 -14 -13 -52 -11 -48 3 -53 1 -56 -19 -2 -12 -10 -22 -18 -22 -8 0 -13 -4
-10 -9 3 -5 -10 -12 -29 -15 -19 -4 -35 -13 -35 -20 0 -9 -18 -15 -52 -18 -29
-3 -54 -11 -56 -18 -3 -9 -6 -9 -13 1 -7 11 -9 11 -9 1 0 -8 -7 -6 -21 7 -19
18 -21 30 -21 138 1 124 -3 157 -19 147 -5 -3 -12 8 -15 25 -4 17 -13 31 -20
31 -8 0 -14 6 -14 13 0 7 -15 25 -32 41 -18 16 -33 31 -33 35 0 10 -49 56 -57
53 -5 -1 -8 5 -8 13 0 8 -9 15 -21 15 -11 0 -17 5 -14 10 3 6 -6 15 -21 20
-14 6 -35 21 -46 35 -10 13 -37 29 -59 35 -21 6 -39 15 -39 20 0 4 -14 11 -30
15 -17 4 -28 11 -24 16 3 5 -8 12 -25 15 -16 4 -32 12 -35 20 -3 9 -21 14 -46
14 -23 0 -39 4 -36 9 3 5 -3 11 -14 14 -13 3 -20 0 -20 -9 0 -8 -7 -14 -15
-14 -7 0 -18 -8 -24 -17 -14 -25 -149 -24 -163 1 -5 9 -22 16 -38 16 -19 0
-30 5 -30 14 0 9 -17 15 -51 18 -28 3 -54 10 -58 16 -3 6 -34 14 -69 18 -41 4
-62 11 -62 20 0 10 -22 14 -82 16 -56 2 -82 7 -81 15 1 6 -18 14 -47 18 -29 4
-48 12 -47 18 1 6 -8 13 -20 15 -13 2 -23 10 -23 18 0 8 -7 14 -15 14 -9 0
-18 7 -21 15 -4 9 -19 15 -35 15 -19 0 -29 5 -29 15 0 10 -10 15 -34 15 -26 0
-33 4 -32 17 0 10 -7 19 -19 21 -11 2 -27 13 -36 24 -9 12 -21 18 -28 14 -16
-10 -14 -36 4 -36 8 0 15 -6 15 -14 0 -8 12 -17 27 -21 20 -5 24 -8 13 -15 -9
-5 4 -7 33 -6 26 2 45 0 42 -4 -3 -5 0 -10 7 -12 7 -3 9 -12 5 -22 -4 -9 -11
-14 -17 -11 -5 3 -10 1 -10 -6 0 -22 -45 -59 -72 -59 -15 0 -30 -5 -34 -11 -4
-8 -9 -7 -15 2 -7 11 -9 10 -9 -3 0 -11 -8 -18 -19 -18 -11 0 -26 -7 -35 -15
-8 -8 -22 -15 -31 -15 -8 0 -18 -6 -21 -14 -3 -8 -19 -19 -35 -25 -16 -5 -29
-15 -29 -20 0 -6 -4 -11 -10 -11 -14 0 -160 -145 -160 -159 0 -6 -7 -11 -15
-11 -8 0 -15 -7 -15 -15 0 -8 -7 -15 -15 -15 -8 0 -15 -5 -15 -11 0 -15 -74
-89 -89 -89 -6 0 -11 -7 -11 -15 0 -10 -11 -15 -35 -15 -32 0 -35 3 -35 29 0
25 -5 30 -35 35 -21 4 -35 13 -35 21 0 8 -7 15 -15 15 -8 0 -15 7 -15 15 0 9
-6 15 -12 14 -31 -4 -48 2 -48 17 0 9 -9 18 -20 21 -11 3 -18 9 -15 13 3 4 -9
10 -26 14 -17 3 -28 10 -25 15 3 5 -6 12 -22 16 -15 3 -34 13 -42 20 -8 7 -40
16 -70 20 -30 3 -57 10 -60 15 -3 6 -34 13 -69 16 -46 5 -61 10 -57 20 3 9 -2
14 -15 14 -11 0 -22 6 -25 14 -3 8 -16 17 -29 20 -14 4 -27 18 -33 36 -6 16
-16 30 -21 30 -6 0 -11 7 -11 15 0 8 -6 15 -14 15 -8 0 -17 15 -20 35 -4 19
-11 35 -15 35 -5 0 -12 12 -15 26 -4 15 -14 33 -21 41 -13 12 -21 56 -16 86 0
4 -6 7 -14 7 -13 0 -19 19 -18 58 1 6 -5 12 -13 12 -8 0 -15 9 -15 20 -1 11
-3 25 -4 30 -1 6 -3 28 -4 50 -1 26 -5 39 -13 37 -9 -1 -13 16 -13 63 l0 65
48 3 c36 2 47 0 47 -11 0 -9 14 -17 35 -21 19 -4 35 -11 35 -16 0 -4 14 -11
30 -15 17 -4 30 -13 30 -21 0 -8 6 -14 14 -14 8 0 17 -13 21 -30 4 -16 13 -30
21 -30 12 0 20 -32 15 -62 0 -5 6 -8 14 -8 10 0 15 -11 15 -35 0 -28 4 -35 20
-35 11 0 20 -7 20 -15 0 -8 7 -15 15 -15 8 0 15 -9 15 -20 0 -11 6 -20 14 -20
8 0 15 -16 19 -42 3 -23 13 -45 21 -50 9 -5 16 -22 16 -39 0 -21 11 -42 34
-67 31 -33 38 -35 63 -26 l28 9 3 128 c2 107 0 128 -13 133 -10 4 -15 19 -15
44 0 21 -6 45 -14 53 -21 20 9 34 61 29 47 -4 53 -15 53 -94 0 -36 4 -48 15
-48 11 0 15 -13 15 -54 0 -67 10 -117 21 -110 5 3 9 -9 9 -26 0 -40 33 -69 78
-70 20 0 32 -5 32 -14 0 -8 7 -16 15 -20 8 -3 15 -12 15 -21 0 -8 6 -15 13
-16 10 0 10 -2 0 -6 -18 -7 -16 -23 2 -23 11 0 15 -11 15 -37 1 -26 9 -47 26
-67 36 -41 44 -23 43 102 -2 77 -5 102 -15 102 -8 0 -16 19 -20 50 -4 32 -11
50 -20 50 -22 0 -16 27 7 33 12 3 18 10 14 16 -3 6 1 11 10 11 9 0 19 9 22 20
3 11 12 20 19 20 8 0 14 9 14 20 0 10 16 34 35 53 19 19 35 39 35 44 0 6 7 13
15 17 8 3 15 12 15 21 0 8 6 15 14 15 8 0 17 14 21 30 4 17 13 30 21 30 8 0
14 7 14 15 0 8 7 15 15 15 8 0 15 9 15 20 0 11 7 20 15 20 10 0 15 10 15 29 0
16 -6 31 -15 35 -8 3 -15 15 -15 26 0 12 -7 20 -17 20 -15 0 -15 1 -1 13 9 6
18 24 22 38 3 14 17 31 31 37 15 7 23 17 20 22 -3 6 5 10 19 10 16 0 26 6 26
15 0 11 12 15 50 15 38 0 50 -4 50 -15z m3676 -30 c9 -8 11 -15 5 -15 -15 0
-14 -50 2 -51 10 0 10 -2 0 -6 -18 -7 -16 -40 2 -40 18 0 20 13 3 20 -7 3 -1
6 15 6 18 1 27 -4 27 -14 0 -8 7 -15 15 -15 8 0 15 -6 15 -13 0 -7 9 -20 20
-30 11 -9 20 -26 20 -37 0 -11 7 -20 15 -20 8 0 15 -6 15 -13 0 -7 9 -20 20
-30 11 -9 20 -23 20 -31 0 -8 7 -16 15 -20 13 -4 15 -39 15 -221 0 -182 -2
-217 -15 -221 -8 -4 -15 -12 -15 -20 0 -8 -10 -14 -25 -14 -16 0 -25 -6 -25
-15 0 -12 -17 -15 -95 -15 -78 0 -95 3 -95 15 0 12 -14 15 -62 15 -77 0 -139
10 -133 20 3 5 -13 11 -35 15 -38 6 -40 9 -40 41 0 19 -4 34 -10 34 -5 0 -10
-9 -10 -20 0 -11 -7 -20 -15 -20 -8 0 -15 -7 -15 -15 0 -8 -9 -15 -19 -15 -24
0 -34 36 -25 90 6 37 9 41 33 38 24 -3 26 0 27 32 0 24 5 36 16 38 15 3 28 30
28 59 0 23 -29 1 -40 -30 -8 -22 -14 -27 -17 -17 -3 8 -12 21 -21 28 -10 7
-11 12 -4 12 7 0 12 15 12 39 0 35 3 39 30 43 23 4 30 1 30 -13 0 -9 6 -22 14
-28 11 -10 16 -8 21 9 5 15 0 26 -17 40 l-23 19 23 1 c12 0 25 7 28 15 3 8 14
17 25 20 10 4 19 13 19 20 0 8 11 17 23 21 19 4 23 10 19 31 -4 21 -6 23 -14
9 -5 -9 -16 -16 -23 -16 -8 0 -15 -8 -15 -18 0 -15 -6 -17 -35 -14 -34 4 -52
32 -20 32 8 0 15 7 15 15 0 9 7 18 15 21 8 4 15 12 15 20 0 9 12 14 35 14 23
0 35 5 35 14 0 16 47 27 79 19 15 -4 21 -1 21 11 0 11 -9 16 -29 16 -34 0 -40
11 -33 63 2 23 10 37 18 37 9 0 14 12 14 35 0 35 0 35 46 35 27 0 51 -6 60
-15z m-3308 -63 c2 -7 -3 -12 -12 -12 -9 0 -16 7 -16 16 0 17 22 14 28 -4z
m62 -36 c0 -3 -4 -8 -10 -11 -5 -3 -10 -1 -10 4 0 6 5 11 10 11 6 0 10 -2 10
-4z m1400 -135 c0 -11 -8 -21 -17 -23 -12 -3 -6 -9 20 -18 20 -8 37 -20 37
-27 0 -7 7 -13 15 -13 8 0 15 -9 15 -20 0 -12 -7 -20 -17 -20 -15 0 -16 -2 -3
-10 12 -7 7 -11 -20 -16 -29 -6 -31 -9 -15 -15 19 -7 18 -8 -2 -8 -13 -1 -23
4 -23 9 0 6 -4 10 -10 10 -5 0 -7 -7 -4 -15 4 -10 0 -15 -15 -15 -12 0 -21 -6
-21 -15 0 -8 -7 -15 -15 -15 -7 0 -18 -7 -23 -15 -4 -9 -23 -17 -42 -20 -19
-2 -36 -9 -38 -15 -6 -18 -18 -11 -19 12 -2 26 12 38 45 38 13 0 22 6 22 15 0
8 9 15 20 15 11 0 20 7 20 16 0 8 4 13 9 10 5 -3 11 9 14 27 4 22 0 36 -11 45
-25 19 -27 63 -2 69 11 3 20 12 20 19 0 9 11 14 30 14 23 0 30 -5 30 -19z
m1200 -12 c17 -31 -3 -52 -36 -37 -30 14 -31 30 -1 44 12 7 23 12 24 13 1 0 7
-8 13 -20z m-1832 -17 c2 -7 -3 -12 -12 -12 -9 0 -16 7 -16 16 0 17 22 14 28
-4z m-2668 -18 c0 -34 -38 -74 -71 -74 -15 0 -30 -7 -33 -16 -9 -23 -26 -7
-26 24 0 25 19 70 20 47 0 -5 4 -5 8 2 6 10 34 18 75 22 5 1 5 6 2 11 -3 6 1
10 9 10 11 0 16 -9 16 -26z m2750 -14 c9 -6 10 -10 3 -10 -6 0 -18 -3 -27 -6
-11 -4 -16 -1 -16 10 0 18 17 21 40 6z m1750 -56 c0 -27 -4 -34 -20 -34 -15 0
-20 7 -20 26 0 14 -4 23 -10 19 -5 -3 -10 -2 -10 2 0 10 42 31 53 26 4 -3 7
-20 7 -39z m-1630 -13 c0 -12 -20 -25 -27 -18 -7 7 6 27 18 27 5 0 9 -4 9 -9z
m730 -6 c0 -8 9 -15 20 -15 11 0 20 7 20 15 0 8 5 15 10 15 6 0 10 -7 10 -15
0 -8 5 -15 10 -15 6 0 10 -7 10 -15 0 -10 10 -15 28 -15 25 0 70 -20 46 -20
-7 0 -22 -11 -35 -25 -27 -28 -49 -32 -49 -10 0 23 -27 18 -33 -6 -4 -13 -10
-18 -17 -14 -7 4 -17 1 -22 -6 -7 -11 -11 -11 -15 -1 -2 6 -13 12 -24 12 -12
0 -19 7 -19 20 0 11 -7 20 -15 20 -8 0 -15 5 -15 10 0 14 37 12 43 -2 3 -8 6
-6 6 5 1 10 9 17 21 17 23 0 27 25 5 34 -8 3 -15 10 -15 16 0 5 7 10 15 10 8
0 15 -7 15 -15z m-770 -36 c0 -5 -4 -9 -10 -9 -5 0 -10 7 -10 16 0 8 5 12 10
9 6 -3 10 -10 10 -16z m70 -18 c0 -6 -4 -13 -10 -16 -5 -3 -10 1 -10 9 0 9 5
16 10 16 6 0 10 -4 10 -9z m-2002 -39 c2 -7 -3 -12 -12 -12 -9 0 -16 7 -16 16
0 17 22 14 28 -4z m-968 -21 c0 -17 -4 -33 -10 -36 -6 -4 -10 8 -10 29 0 20 5
36 10 36 6 0 10 -13 10 -29z m3872 22 c2 -5 17 -16 33 -25 17 -9 31 -26 33
-37 3 -15 11 -21 30 -21 15 0 35 -9 45 -20 9 -11 26 -20 37 -20 11 0 20 -7 20
-15 0 -8 9 -15 20 -15 14 0 20 -7 21 -22 0 -22 1 -22 9 -3 8 18 9 18 11 3 6
-47 8 -44 -41 -47 -11 0 -20 -8 -20 -16 0 -8 -7 -15 -15 -15 -8 0 -15 -7 -15
-15 0 -8 -6 -15 -14 -15 -8 0 -16 7 -20 15 -3 8 -14 15 -25 15 -11 0 -26 7
-35 15 -8 8 -19 15 -25 15 -6 0 -11 16 -11 35 l0 35 -50 0 c-38 0 -50 4 -50
15 0 8 -9 15 -20 15 -11 0 -20 7 -20 15 0 9 -9 15 -21 15 -33 0 -19 32 19 42
17 5 32 13 32 18 0 6 9 10 20 10 11 0 20 7 20 15 0 15 26 21 32 8z m328 -16
c0 -23 -34 -52 -50 -42 -18 11 -10 35 10 35 11 0 20 7 20 15 0 8 5 15 10 15 6
0 10 -10 10 -23z m100 13 c0 -5 -4 -10 -10 -10 -5 0 -10 5 -10 10 0 6 5 10 10
10 6 0 10 -4 10 -10z m-4200 -30 c0 -21 -15 -27 -25 -10 -7 12 2 30 16 30 5 0
9 -9 9 -20z m3050 -5 c0 -1 -9 -5 -20 -8 -12 -3 -20 0 -20 8 0 8 8 11 20 8 11
-3 20 -7 20 -8z m150 -30 c0 -9 -9 -15 -25 -15 -31 0 -33 17 -2 23 12 2 23 5
25 6 1 0 2 -6 2 -14z m-60 -36 c0 -6 -9 -13 -20 -16 -11 -3 -20 -12 -20 -19 0
-9 -12 -14 -33 -14 -23 0 -34 5 -34 15 0 10 11 15 34 15 23 0 33 5 33 15 0 8
9 15 20 15 11 0 20 -5 20 -11z m-3310 -269 c0 -5 -8 -10 -17 -10 -15 0 -16 2
-3 10 19 12 20 12 20 0z m4735 0 c3 -5 1 -10 -4 -10 -6 0 -11 5 -11 10 0 6 2
10 4 10 3 0 8 -4 11 -10z m-4828 -30 c7 -27 43 -27 43 1 0 11 5 17 10 14 6 -3
10 -17 10 -31 0 -14 -4 -22 -10 -19 -5 3 -10 0 -10 -7 0 -19 58 -17 70 2 12
20 20 9 13 -18 -5 -19 -20 -27 -45 -23 -5 0 -8 -8 -8 -19 0 -11 -6 -20 -14
-20 -8 0 -17 -13 -21 -30 -7 -32 -22 -39 -31 -15 -4 8 -12 15 -20 15 -8 0 -14
-7 -14 -15 0 -8 7 -15 16 -15 12 0 15 -7 12 -30 -4 -23 -1 -30 13 -30 9 0 20
7 23 16 3 8 10 13 15 9 6 -3 15 4 21 15 6 11 15 18 20 15 5 -3 17 3 27 15 10
11 25 20 35 20 16 0 18 -11 19 -87 1 -49 0 -95 -1 -103 -1 -11 3 -10 18 5 10
11 17 26 14 33 -3 8 10 12 48 12 34 0 49 -4 45 -11 -4 -6 2 -13 14 -16 12 -3
21 -11 21 -18 0 -7 9 -15 21 -18 29 -8 14 -27 -22 -27 -18 0 -29 -5 -29 -14 0
-14 -42 -26 -95 -26 -20 0 -35 -6 -39 -15 -4 -12 -29 -15 -136 -15 -109 0
-130 2 -130 15 0 10 -10 15 -30 15 -18 0 -33 6 -36 15 -4 8 -12 15 -20 15 -8
0 -14 9 -14 20 0 11 -7 20 -15 20 -14 0 -21 43 -16 88 1 6 -5 12 -14 12 -19 0
-20 16 0 24 8 3 15 15 15 26 0 11 7 20 15 20 13 0 20 18 16 42 0 4 8 12 19 18
11 6 18 16 14 21 -3 6 3 13 15 16 12 3 21 12 21 19 0 8 7 14 15 14 8 0 15 7
15 15 0 8 7 15 15 15 7 0 18 6 22 14 8 12 28 23 46 25 5 1 11 -8 14 -19z
m4933 6 c0 -8 -4 -18 -10 -21 -5 -3 -10 3 -10 14 0 12 5 21 10 21 6 0 10 -6
10 -14z m-100 -36 c0 -5 -7 -10 -16 -10 -8 0 -12 5 -9 10 3 6 10 10 16 10 5 0
9 -4 9 -10z m-190 -13 c33 9 36 -24 6 -52 -15 -14 -31 -25 -37 -25 -5 0 -9 -7
-9 -15 0 -10 -11 -15 -35 -15 -29 0 -35 4 -35 21 0 11 -4 17 -10 14 -5 -3 -10
1 -10 9 0 9 7 16 15 16 8 0 23 9 32 20 10 11 25 20 35 20 10 0 18 6 19 13 0 8
2 8 5 1 3 -7 14 -10 24 -7z m360 -22 c0 -8 -9 -15 -20 -15 -20 0 -26 11 -13
23 12 13 33 7 33 -8z m-130 1 c0 -2 -7 -7 -16 -10 -8 -3 -12 -2 -9 4 6 10 25
14 25 6z m314 -8 c-15 -7 -28 -7 -40 1 -16 9 -12 10 21 10 35 0 37 -2 19 -11z
m-4504 -28 c0 -5 -12 -10 -26 -10 -14 0 -23 4 -19 10 3 6 15 10 26 10 10 0 19
-4 19 -10z m4380 0 c0 -5 -4 -10 -10 -10 -5 0 -10 5 -10 10 0 6 5 10 10 10 6
0 10 -4 10 -10z m206 -36 c16 -20 104 -20 104 1 0 10 10 15 30 15 30 0 43 -24
18 -33 -10 -4 -10 -7 0 -18 11 -12 18 -11 43 4 38 21 57 22 81 0 14 -13 18
-13 18 -2 0 11 2 11 10 -1 8 -13 10 -12 12 5 8 69 13 -535 13 -1545 l0 -1165
-2497 -3 c-2497 -2 -2498 -2 -2498 18 0 11 9 28 19 37 11 9 18 20 15 25 -3 4
2 11 10 14 9 3 16 12 16 20 0 11 17 14 70 14 54 0 70 -3 70 -14 0 -8 13 -17
30 -21 16 -4 28 -12 27 -18 -1 -6 8 -13 21 -15 12 -2 22 -10 22 -18 0 -18 14
-18 30 1 8 9 30 15 57 15 26 0 46 5 49 13 2 7 15 14 28 15 29 2 76 20 56 22
-13 0 -13 2 -1 9 10 6 16 33 19 75 3 38 8 63 14 60 5 -3 12 3 15 15 3 14 16
23 39 27 19 3 34 12 34 20 0 8 5 14 10 14 6 0 10 -6 10 -14 0 -8 15 -16 35
-19 19 -3 42 -13 51 -21 19 -20 80 -21 91 -3 4 8 31 17 58 21 62 8 75 24 75
97 0 41 4 58 15 63 8 3 15 12 15 20 0 9 14 18 35 22 19 3 33 11 32 18 -1 7 18
12 51 14 40 2 52 0 52 -11 0 -16 29 -27 73 -27 16 0 27 5 27 14 0 15 21 26 51
26 12 0 19 -7 19 -20 0 -11 6 -19 13 -17 6 1 11 -4 9 -11 -1 -7 5 -15 14 -19
21 -8 124 -110 124 -123 0 -5 7 -10 15 -10 8 0 15 -7 15 -15 0 -9 8 -18 18
-22 9 -3 29 -20 45 -36 15 -17 27 -26 28 -21 1 5 4 -2 8 -16 4 -14 13 -24 20
-22 7 1 15 -7 18 -18 4 -15 14 -20 37 -20 23 0 27 -3 16 -10 -12 -8 -12 -10 2
-15 28 -11 113 -1 111 13 -2 7 9 12 28 12 22 0 32 5 36 20 3 11 12 20 19 20 8
0 14 4 14 8 0 5 9 19 20 32 17 20 26 66 21 108 -2 10 25 17 51 13 4 0 10 15
14 33 3 19 12 37 20 40 20 8 20 182 0 193 -8 4 -17 24 -20 43 -3 19 -10 36
-16 38 -5 2 -8 8 -4 13 3 5 0 9 -5 9 -6 0 -11 7 -11 15 0 8 -7 15 -15 15 -20
0 -19 27 2 38 14 8 16 33 15 198 0 117 4 194 10 201 6 7 7 13 4 13 -4 0 0 7 8
16 9 8 16 28 16 43 0 23 4 27 28 26 23 0 27 -5 30 -31 2 -22 9 -34 23 -37 11
-3 18 -11 17 -19 -2 -7 3 -12 10 -10 8 1 16 -7 19 -18 3 -11 12 -20 19 -20 8
0 14 -7 14 -15 0 -12 16 -15 80 -15 59 0 79 3 78 13 -4 19 133 23 144 3 6 -12
40 -15 180 -16 168 -1 193 -3 183 -19 -2 -5 16 -11 42 -14 26 -3 52 -11 57
-19 7 -9 38 -15 91 -17 44 -1 82 -7 83 -12 5 -12 32 -12 32 1 0 14 63 12 79
-2 11 -10 13 -10 7 0 -5 8 1 12 18 12 19 0 26 5 26 20 0 11 6 20 14 20 8 0 17
13 21 29 3 16 13 32 21 35 8 3 14 12 14 20 0 7 7 16 15 20 8 3 15 17 15 31 0
15 6 25 14 25 8 0 17 15 20 35 4 21 13 35 21 35 10 0 15 10 15 30 0 20 5 30
15 30 10 0 15 11 15 35 0 24 5 35 15 35 8 0 15 9 15 20 0 11 6 20 14 20 8 0
17 14 21 30 4 17 13 30 21 30 9 0 14 11 14 30 0 16 6 33 14 37 8 4 16 22 19
38 2 17 10 30 18 30 7 0 15 9 17 20 3 11 10 24 18 28 8 4 14 18 14 31 0 13 6
29 14 35 8 7 18 37 22 67 3 30 10 54 15 54 5 0 9 20 9 45 0 25 -4 45 -9 45 -5
0 -12 18 -16 40 -4 22 -13 47 -21 54 -8 8 -14 28 -14 44 0 18 -6 32 -16 36 -9
4 -14 9 -11 12 3 3 1 20 -4 37 -5 19 -5 45 0 62 5 17 10 24 10 17 1 -10 5 -10
17 2 8 9 20 14 25 11 5 -4 9 1 9 9 0 10 9 16 25 16 26 0 45 25 45 59 0 12 -5
21 -12 21 -6 0 -1 9 11 19 15 13 18 20 9 24 -7 2 4 8 25 12 21 4 37 13 37 21
0 16 5 17 39 7 23 -6 23 -7 5 -13 -16 -6 -14 -8 13 -14 22 -5 33 -14 38 -33 3
-14 13 -32 20 -40 8 -8 15 -25 15 -39 0 -15 6 -24 15 -24 10 0 15 -10 15 -28
0 -20 10 -37 34 -57 19 -16 37 -39 41 -52 3 -13 16 -25 30 -29 14 -3 25 -12
25 -20 0 -8 9 -14 20 -14 11 0 20 -6 20 -14 0 -7 9 -16 21 -19 12 -3 18 -10
14 -16 -4 -7 7 -11 29 -11 22 0 38 -6 44 -17 9 -15 26 -20 75 -22 9 -1 17 -8
17 -16 0 -8 9 -15 20 -15 11 0 29 -9 40 -20 11 -11 25 -20 30 -20 6 0 10 -7
10 -15 0 -8 7 -15 15 -15 9 0 15 10 15 26 0 19 -7 28 -30 37 -16 6 -30 17 -30
24 0 7 -9 13 -20 13 -11 0 -29 9 -40 20 -11 11 -33 20 -50 20 -20 0 -30 5 -30
15 0 10 -10 15 -30 15 -20 0 -30 5 -30 15 0 10 -10 15 -31 15 -22 0 -32 5 -36
20 -3 11 -12 20 -19 20 -8 0 -14 6 -14 14 0 7 -9 16 -20 19 -11 3 -20 12 -20
21 0 9 -7 16 -16 16 -8 0 -12 5 -9 11 4 6 -2 13 -14 16 -15 4 -21 13 -21 34 0
15 -6 32 -14 36 -8 4 -14 11 -14 16 1 30 -15 77 -27 77 -10 0 -15 11 -15 35 0
24 -5 35 -14 35 -8 0 -17 14 -21 30 -4 17 -11 30 -16 30 -5 0 -9 6 -9 14 0 16
27 29 41 20 5 -3 13 6 19 21 8 21 14 24 35 19 18 -4 27 -2 32 12 14 37 42 54
88 54 29 0 45 -4 46 -12 0 -10 2 -10 6 0 10 25 23 10 23 -28 0 -31 3 -38 15
-34 11 5 15 -1 15 -25 0 -19 -5 -30 -12 -28 -7 1 -14 -8 -16 -21 -2 -16 -8
-22 -19 -18 -8 3 -22 6 -31 6 -16 1 -16 2 -1 13 9 7 18 27 21 45 4 28 2 32
-19 32 -14 0 -23 -6 -23 -16 0 -8 -4 -13 -9 -10 -5 3 -11 -12 -15 -33 -3 -22
-12 -41 -18 -43 -9 -3 -14 -35 -16 -101 -3 -84 -2 -97 12 -97 9 0 16 -7 16
-15 0 -8 8 -15 19 -15 13 0 21 -10 26 -32 6 -29 8 -31 15 -13 5 11 9 32 9 46
1 18 8 28 22 32 12 3 18 10 14 16 -3 6 2 11 13 11 11 0 22 -7 26 -15 3 -8 17
-15 32 -15 19 0 25 -4 20 -15 -4 -10 1 -15 14 -15 12 0 20 -7 20 -16 0 -9 9
-18 20 -21 11 -3 20 -12 20 -19 0 -9 11 -14 30 -14 20 0 30 -5 30 -15 0 -8 9
-15 20 -15 11 0 20 -6 20 -14 0 -8 7 -16 15 -20 8 -3 15 -12 15 -21 0 -8 9
-15 20 -15 11 0 20 -7 20 -15 0 -8 5 -15 11 -15 6 0 17 -7 25 -15 9 -8 25 -15
36 -15 11 0 22 -8 25 -20 3 -11 12 -20 19 -20 8 0 14 -7 14 -15 0 -8 7 -15 15
-15 7 0 18 -7 23 -15 4 -9 25 -18 45 -22 33 -5 41 -2 79 36 24 22 50 41 58 41
13 0 13 1 0 10 -10 6 -11 10 -2 10 6 0 12 9 12 20 0 10 8 24 18 29 9 6 11 11
5 11 -7 0 -13 9 -13 21 0 12 -8 23 -20 26 -11 3 -20 12 -20 19 0 8 -7 14 -15
14 -8 0 -15 7 -15 16 0 9 -9 18 -20 21 -11 3 -20 12 -20 19 0 8 -6 14 -14 14
-8 0 -16 7 -20 15 -3 8 -9 15 -13 14 -33 -5 -53 3 -53 22 0 12 -4 17 -11 14
-6 -4 -13 2 -16 14 -3 12 -12 21 -19 21 -8 0 -14 6 -14 14 0 8 -16 17 -37 21
-21 4 -32 10 -25 12 9 3 5 12 -13 29 -14 13 -32 21 -39 18 -9 -3 -17 3 -21 15
-3 12 -12 21 -20 21 -7 0 -15 9 -18 21 -3 12 -10 18 -16 14 -8 -4 -11 18 -11
67 0 51 3 68 10 58 8 -12 10 -9 10 13 0 15 -4 27 -10 27 -5 0 -10 7 -10 15 0
10 17 15 68 18 83 4 114 0 128 -19z m-4466 1 c0 -8 -7 -15 -15 -15 -8 0 -15 7
-15 15 0 8 7 15 15 15 8 0 15 -7 15 -15z m2065 -65 c-3 -5 1 -10 10 -10 10 0
13 5 9 12 -4 7 -3 8 5 4 14 -9 5 -26 -15 -26 -8 0 -12 -5 -9 -11 4 -6 -2 -13
-14 -16 -12 -3 -21 -11 -21 -18 0 -9 -16 -13 -50 -13 -27 -1 -50 3 -50 8 0 12
37 23 50 15 5 -3 10 1 10 10 0 9 13 21 30 26 16 6 27 15 24 20 -3 5 2 9 11 9
9 0 13 -4 10 -10z m1532 -70 c3 -11 12 -20 19 -20 9 0 14 -11 14 -30 0 -20 -5
-30 -15 -30 -8 0 -15 6 -15 14 0 7 -8 16 -19 19 -13 3 -17 12 -16 33 4 36 3
34 16 34 6 0 13 -9 16 -20z m-1672 -20 c3 -5 -1 -10 -10 -10 -9 0 -13 5 -10
10 3 6 8 10 10 10 2 0 7 -4 10 -10z m565 -70 c0 -5 -4 -10 -10 -10 -5 0 -10 5
-10 10 0 6 5 10 10 10 6 0 10 -4 10 -10z m0 -35 c0 -8 -2 -15 -4 -15 -2 0 -6
7 -10 15 -3 8 -1 15 4 15 6 0 10 -7 10 -15z m1024 -21 c24 -9 21 -64 -3 -64
-30 0 -51 -11 -51 -26 0 -9 -12 -14 -35 -14 -21 0 -34 -5 -32 -11 1 -6 -4 -14
-10 -16 -9 -3 -13 6 -13 25 0 17 6 32 15 36 8 3 15 12 15 21 0 8 7 15 15 15 9
0 25 9 37 20 23 21 36 24 62 14z m-984 -19 c0 -8 -4 -15 -10 -15 -5 0 -10 7
-10 15 0 8 5 15 10 15 6 0 10 -7 10 -15z m-73 -23 c12 2 17 -2 15 -14 -3 -20
14 -24 21 -5 3 6 6 1 6 -13 1 -23 -3 -25 -48 -28 -27 -1 -51 1 -54 5 -2 5 0
23 5 41 7 27 12 31 23 22 7 -6 22 -10 32 -8z m-111 -27 c2 -16 -2 -35 -8 -42
-5 -7 -7 -20 -4 -29 4 -9 0 -24 -8 -33 -8 -9 -20 -36 -26 -61 -7 -25 -16 -48
-22 -51 -5 -3 -11 -14 -12 -24 -5 -32 -23 -28 -30 6 -11 57 -7 122 10 140 9
10 19 32 24 51 4 18 9 40 11 48 11 42 60 38 65 -5z m948 -61 c8 -32 0 -60 -19
-68 -8 -3 -15 -11 -15 -19 0 -7 -12 -14 -27 -15 -16 -1 -33 -9 -39 -17 -6 -8
-20 -15 -32 -15 -33 0 -56 -11 -41 -21 8 -5 -1 -10 -24 -14 -22 -4 -37 -13
-37 -21 0 -10 -13 -14 -45 -14 -33 0 -45 -4 -45 -15 0 -8 -7 -15 -15 -15 -11
0 -15 12 -15 47 0 55 21 83 61 83 15 0 32 7 37 15 4 9 26 18 48 22 21 3 43 12
47 20 4 7 15 13 22 13 8 0 15 7 15 15 0 11 11 15 41 15 24 0 38 -4 34 -10 -3
-5 -2 -10 4 -10 6 0 13 11 17 25 8 32 20 32 28 -1z m-886 -21 c2 -8 -5 -13
-17 -13 -12 0 -21 6 -21 16 0 18 31 15 38 -3z m-2278 -103 c0 -5 -4 -10 -10
-10 -5 0 -10 5 -10 10 0 6 5 10 10 10 6 0 10 -4 10 -10z m2730 -37 c0 -8 -5
-11 -11 -8 -6 4 -13 -2 -16 -14 -4 -16 -13 -21 -39 -21 -24 0 -34 -5 -34 -15
0 -10 -10 -15 -30 -15 -16 0 -30 -4 -30 -10 0 -5 -7 -10 -15 -10 -8 0 -15 -4
-15 -10 0 -5 -9 -10 -20 -10 -11 0 -19 -6 -17 -12 1 -8 -11 -14 -30 -16 -19
-2 -33 -9 -33 -17 0 -7 -16 -16 -35 -19 -20 -4 -33 -11 -30 -15 6 -11 -19 -21
-51 -21 -15 0 -24 -6 -24 -15 0 -10 -10 -15 -30 -15 -20 0 -30 -5 -30 -15 0
-8 -9 -15 -20 -15 -11 0 -20 -7 -20 -15 0 -8 -4 -15 -10 -15 -5 0 -10 10 -9
23 0 12 -3 34 -7 50 -5 22 -3 27 12 27 16 0 17 2 4 10 -11 7 -4 10 28 10 28 0
45 5 48 15 3 8 21 17 40 21 19 3 34 12 34 19 0 8 14 16 30 20 17 4 30 11 30
15 0 5 16 12 35 16 20 3 35 12 35 20 0 9 12 14 35 14 24 0 35 5 35 15 0 11 12
15 45 15 32 0 47 5 54 18 12 23 91 19 91 -5z m546 -105 c7 -22 7 -22 15 -3 7
17 8 16 8 -7 1 -17 7 -28 15 -28 20 0 31 -118 12 -139 -7 -9 -17 -33 -20 -54
-4 -21 -15 -46 -25 -56 -11 -11 -17 -30 -16 -49 1 -20 -3 -32 -11 -32 -13 0
-24 -22 -24 -51 0 -11 -7 -19 -16 -19 -10 0 -14 -6 -11 -14 3 -8 -2 -16 -14
-19 -14 -4 -19 -14 -19 -36 0 -20 -5 -31 -15 -31 -13 0 -33 -61 -27 -83 1 -5
-2 -6 -8 -2 -6 4 -13 -7 -16 -24 -4 -17 -11 -28 -16 -25 -5 3 -12 -3 -15 -15
-3 -12 -12 -21 -19 -21 -8 0 -14 -7 -14 -15 0 -9 -7 -18 -15 -21 -8 -4 -15
-10 -15 -16 0 -5 5 -6 10 -3 6 3 10 -3 10 -13 0 -21 -29 -35 -67 -34 -34 1
-28 -16 10 -26 l32 -8 -25 -14 c-14 -8 -29 -14 -35 -15 -5 0 -11 -15 -13 -32
-2 -21 -9 -33 -18 -33 -8 0 -14 -7 -14 -15 0 -12 -18 -15 -101 -15 -86 0 -100
2 -95 15 4 11 -2 15 -22 15 -15 0 -36 7 -46 15 -11 8 -34 15 -52 15 -18 0 -39
7 -48 15 -16 17 -41 21 -31 5 4 -6 -5 -10 -20 -10 -14 0 -24 4 -21 9 8 12 -29
21 -87 21 -30 0 -46 4 -42 10 4 6 10 8 15 5 5 -3 12 6 16 20 6 22 11 25 54 25
34 0 50 -5 54 -15 5 -13 33 -16 195 -15 l190 2 6 29 c4 16 12 32 19 36 7 5 16
16 19 26 4 10 11 16 16 13 5 -4 12 8 16 25 5 23 9 28 16 18 6 -10 10 -5 15 19
4 17 13 32 20 32 9 0 14 12 14 35 0 24 5 35 14 35 8 0 18 14 21 32 4 17 14 38
21 46 19 18 18 52 -1 52 -8 0 -15 -6 -15 -14 0 -7 -6 -19 -14 -25 -11 -10 -16
-8 -21 8 -3 12 -11 21 -18 21 -8 0 -8 -3 1 -12 18 -18 16 -78 -3 -78 -8 0 -15
7 -15 15 0 8 -7 15 -15 15 -8 0 -15 -7 -15 -15 0 -8 -7 -15 -15 -15 -18 0 -21
-50 -2 -51 6 0 -3 -5 -20 -10 -18 -5 -33 -16 -33 -24 0 -7 -4 -16 -9 -19 -13
-8 -42 4 -35 15 3 5 0 9 -5 9 -10 0 -15 -20 -12 -47 1 -8 -5 -10 -14 -7 -8 4
-17 -1 -21 -10 -3 -9 -13 -16 -20 -16 -8 0 -18 -9 -22 -21 -5 -11 -11 -20 -15
-20 -4 1 -32 1 -62 1 -47 0 -55 -3 -55 -19 0 -14 -6 -17 -27 -13 -16 2 -33 11
-39 18 -10 12 -13 12 -24 -1 -14 -17 -40 -20 -40 -4 0 6 9 13 20 16 11 3 20
12 20 19 0 8 7 14 15 14 9 0 12 6 9 15 -4 11 0 15 16 15 13 0 24 8 27 20 3 12
14 20 28 20 12 0 30 9 40 20 10 11 31 20 46 20 27 0 83 43 71 54 -3 3 9 6 28
6 26 0 30 3 21 14 -9 11 -7 15 9 19 11 3 20 12 20 21 0 11 9 16 33 16 21 0 28
3 19 9 -11 7 -10 10 3 15 9 3 28 6 41 6 32 0 43 28 19 46 -18 13 -17 14 9 14
15 0 33 -6 41 -13 13 -14 85 -11 85 3 0 12 -24 19 -53 16 -24 -3 -43 15 -30
28 4 3 28 6 55 6 26 0 48 4 48 10 0 5 14 24 31 41 20 21 29 38 26 51 -7 26 2
48 19 48 9 0 14 11 14 28 0 52 12 104 21 90 7 -10 9 -8 10 7 1 11 3 25 4 30 2
6 3 20 4 33 0 12 7 22 15 22 8 0 18 -10 22 -22z m-1406 -18 c0 -6 10 -21 21
-33 12 -12 19 -17 16 -11 -7 12 22 24 61 24 12 0 25 7 28 15 4 8 11 15 16 15
19 0 58 -45 58 -67 0 -15 8 -23 29 -28 47 -10 50 -74 3 -78 -12 -1 -22 -5 -22
-9 0 -8 15 -12 38 -9 8 1 12 -12 12 -39 0 -23 -4 -39 -9 -36 -11 7 -21 -28
-21 -77 0 -21 -7 -45 -15 -53 -9 -9 -15 -34 -15 -60 0 -33 -4 -44 -15 -44 -9
0 -18 -7 -21 -15 -4 -9 -19 -15 -35 -15 -19 0 -29 -5 -29 -15 0 -8 -7 -15 -15
-15 -7 0 -19 -8 -24 -17 -8 -14 -11 -15 -11 -3 0 12 -3 11 -11 -2 -5 -10 -17
-18 -24 -18 -8 0 -15 -6 -15 -14 0 -8 -15 -17 -35 -20 -20 -4 -33 -11 -30 -17
4 -5 -3 -9 -14 -9 -12 0 -21 -7 -21 -15 0 -8 -9 -16 -20 -16 -11 -1 -26 -2
-32 -3 -7 -1 -16 -9 -20 -18 -5 -12 -18 -18 -38 -18 -20 0 -30 -5 -30 -15 0
-8 -7 -15 -15 -15 -8 0 -15 -7 -15 -15 0 -8 -14 -17 -35 -21 -20 -3 -35 -12
-35 -20 0 -9 -11 -14 -29 -14 -16 0 -31 -6 -35 -15 -3 -8 -17 -15 -32 -15 -17
0 -28 -6 -31 -20 -3 -11 -14 -20 -24 -20 -11 0 -19 -7 -19 -15 0 -9 -9 -15
-25 -15 -16 0 -25 -6 -25 -15 0 -10 -10 -15 -34 -15 -25 0 -35 -5 -39 -20 -4
-15 -14 -20 -36 -20 -21 0 -31 -5 -31 -15 0 -8 -9 -15 -20 -15 -11 0 -20 -7
-20 -15 0 -8 -3 -14 -7 -13 -12 2 -47 -14 -55 -26 -7 -11 -11 -12 -43 -15 -8
0 -15 -7 -15 -15 0 -8 -15 -17 -35 -20 -19 -4 -35 -11 -35 -15 0 -5 -16 -12
-35 -15 -19 -4 -35 -11 -35 -16 0 -13 -27 -13 -32 0 -2 8 -129 16 -300 20 -5
0 -8 7 -8 15 0 8 -4 15 -10 15 -5 0 -10 -7 -10 -15 0 -10 -11 -15 -35 -15 -28
0 -35 -4 -35 -20 0 -13 -7 -20 -20 -20 -11 0 -20 -7 -20 -15 0 -8 -7 -15 -15
-15 -8 0 -15 -6 -15 -14 0 -15 -45 -30 -60 -21 -6 4 -10 19 -10 36 0 34 -10
37 -28 9 -18 -29 -32 -25 -32 10 0 21 -4 28 -14 24 -10 -4 -16 5 -21 25 -4 17
-13 31 -21 31 -10 0 -14 13 -14 49 0 34 -4 51 -15 55 -12 4 -15 -5 -15 -50 0
-47 -3 -57 -20 -61 -11 -3 -17 -9 -14 -14 3 -5 -7 -9 -23 -9 -26 0 -70 -19
-48 -21 22 -1 -32 -18 -62 -18 -22 -1 -33 -6 -33 -16 0 -11 -12 -15 -51 -15
-41 0 -52 -4 -56 -19 -4 -15 -15 -18 -75 -19 -38 0 -72 -3 -75 -6 -14 -14 13
-21 75 -19 47 2 68 7 74 18 6 10 24 15 57 15 31 0 53 5 61 15 7 8 29 15 50 15
21 0 43 7 50 15 15 18 56 20 64 3 5 -10 7 -10 12 0 7 15 40 16 49 2 4 -6 10
-8 14 -6 4 3 8 -6 9 -20 1 -15 -3 -24 -13 -24 -8 0 -15 7 -15 15 0 8 -7 15
-15 15 -8 0 -15 -9 -15 -19 0 -10 7 -21 15 -25 8 -3 15 -12 15 -20 0 -12 7
-14 30 -9 23 4 30 2 30 -11 0 -10 8 -16 21 -16 14 0 19 -5 17 -17 -2 -12 -11
-17 -26 -15 -15 2 -22 -2 -22 -13 0 -9 -12 -18 -30 -22 -38 -7 -34 -27 5 -31
19 -3 33 2 42 14 9 13 28 18 70 18 49 1 58 4 57 19 -1 13 6 17 37 17 28 0 39
4 39 15 0 8 9 15 19 15 10 0 21 7 25 15 3 8 13 15 23 14 11 0 13 -3 6 -6 -18
-7 -16 -20 2 -20 8 0 15 6 15 13 0 6 9 14 21 17 12 3 18 10 14 16 -4 8 26 11
99 10 58 0 108 -5 112 -10 3 -5 -5 -9 -16 -9 -13 0 -24 -8 -27 -20 -3 -11 -12
-20 -19 -20 -8 0 -14 -7 -14 -15 0 -8 -9 -15 -19 -15 -11 0 -26 -7 -35 -15 -8
-8 -18 -15 -23 -15 -5 0 -16 -9 -26 -20 -9 -11 -28 -20 -42 -20 -14 0 -25 -6
-25 -14 0 -8 -15 -15 -40 -19 -22 -3 -47 -12 -55 -21 -9 -9 -27 -16 -41 -16
-15 0 -24 -6 -24 -15 0 -10 -11 -15 -35 -15 -24 0 -35 -5 -35 -15 0 -10 -10
-15 -27 -16 -29 0 -75 -16 -58 -19 23 -5 -55 -18 -112 -19 -49 -1 -63 -4 -63
-16 0 -12 -18 -15 -100 -15 -80 0 -102 -3 -106 -15 -7 -17 -55 -20 -70 -5 -5
5 -53 12 -107 16 -59 4 -104 12 -112 20 -7 7 -24 16 -39 20 -27 6 -35 29 -13
38 8 3 7 8 -5 16 -23 14 -23 46 0 52 25 7 26 49 1 55 -10 3 -19 11 -19 17 0 7
-16 26 -35 42 -28 23 -32 31 -22 39 8 6 16 21 20 34 4 17 1 24 -13 28 -15 4
-19 14 -18 39 1 29 5 34 25 34 13 0 22 -5 21 -12 -2 -9 12 -14 40 -16 33 -2
42 0 42 12 0 11 -9 16 -29 16 -20 0 -30 6 -34 20 -3 11 -12 20 -21 20 -9 0
-29 14 -46 31 -22 24 -30 41 -29 68 1 43 11 74 24 69 6 -2 11 12 13 30 2 20 9
32 18 32 8 0 14 9 14 19 0 11 7 26 15 35 8 8 15 19 15 25 0 6 9 15 20 21 11 6
20 15 20 21 0 6 7 17 15 25 8 9 15 24 15 35 0 10 7 19 15 19 8 0 15 7 15 15 0
8 9 15 20 15 11 0 20 7 20 15 0 8 7 15 15 15 8 0 15 6 15 13 0 7 16 19 35 27
19 8 35 17 35 22 0 21 19 4 25 -22 6 -26 11 -30 41 -30 20 0 33 4 30 9 -3 5 3
11 14 14 13 3 20 0 20 -9 0 -8 4 -14 9 -14 5 0 12 23 16 50 4 32 12 50 20 50
8 0 15 14 17 33 2 18 8 31 15 30 7 -2 15 13 19 32 3 20 12 35 20 35 8 0 14 7
14 15 0 8 7 15 15 15 8 0 15 7 15 15 0 8 15 17 37 21 31 6 34 8 18 14 -17 6
-15 8 13 14 18 4 32 14 32 22 0 8 7 14 15 14 9 0 18 6 21 14 3 8 18 18 34 21
16 3 31 13 34 21 3 8 19 14 36 14 19 0 30 5 30 14 0 9 17 16 49 20 27 4 51 12
53 18 3 8 40 14 105 16 93 4 103 3 119 -17 10 -11 24 -21 31 -21 7 0 13 -7 13
-15 0 -8 6 -15 14 -15 18 0 24 -34 18 -104 -3 -39 -9 -56 -18 -56 -8 0 -14 -7
-14 -15 0 -8 -6 -15 -14 -15 -8 0 -17 -11 -20 -25 -4 -14 -13 -25 -21 -25 -8
0 -15 -7 -15 -15 0 -8 -7 -15 -15 -15 -8 0 -15 -7 -15 -16 0 -12 -9 -14 -37
-12 -24 2 -37 8 -36 16 2 6 -4 12 -12 12 -11 0 -15 -12 -15 -45 0 -44 -1 -45
-31 -45 -18 0 -38 -8 -46 -17 -10 -13 -16 -15 -19 -5 -8 17 -44 15 -44 -3 0
-19 -19 -20 -26 -1 -3 8 -21 17 -40 21 -20 3 -32 10 -28 16 3 6 -3 13 -15 16
-12 3 -21 12 -21 19 0 8 -7 14 -15 14 -10 0 -15 -10 -15 -30 0 -19 5 -30 14
-30 8 0 18 -9 21 -20 3 -11 11 -20 16 -20 5 0 9 -9 9 -20 0 -16 -7 -20 -30
-20 -16 0 -30 -4 -30 -10 0 -5 4 -10 9 -10 5 0 17 -8 27 -17 13 -13 19 -14 22
-5 7 23 30 12 37 -17 3 -16 13 -32 21 -35 8 -3 14 -13 14 -22 0 -13 6 -15 28
-9 15 3 31 13 35 21 4 8 15 14 23 14 8 0 17 7 20 15 4 8 12 15 20 15 8 0 14 7
14 15 0 10 10 15 30 15 19 0 30 5 30 14 0 8 14 17 30 21 17 4 30 13 30 21 0 8
7 14 15 14 8 0 24 9 35 20 15 15 33 20 70 20 38 0 50 4 50 15 0 13 9 15 51 9
46 -6 51 -5 56 15 4 17 13 21 49 21 32 0 44 4 44 15 0 8 7 15 15 15 9 0 18 6
21 14 3 8 19 18 35 21 16 4 29 13 29 21 0 8 9 14 20 14 11 0 20 7 20 15 0 10
10 15 30 15 16 0 33 7 38 16 5 9 11 16 13 15 17 -2 49 14 49 25 0 8 7 14 15
14 9 0 18 7 21 15 4 8 18 15 33 15 15 0 34 9 44 20 9 11 26 20 37 20 11 0 19
6 18 13 -2 7 10 13 30 15 18 2 32 9 32 16 0 8 15 16 33 20 24 5 28 9 18 16
-11 6 -5 10 22 15 20 4 35 12 34 19 -1 6 13 12 31 14 24 2 32 7 28 18 -3 9 1
14 13 14 29 0 52 11 45 21 -3 5 5 9 18 9 13 0 31 9 41 20 9 11 26 20 37 20 11
0 20 7 20 15 0 12 14 15 65 15 38 0 65 -4 65 -10z m1195 -40 c-3 -5 3 -10 15
-10 12 0 24 -9 29 -22 5 -13 12 -22 17 -20 4 1 9 -4 10 -13 1 -8 -4 -15 -11
-15 -7 0 -15 -9 -18 -20 -3 -11 -13 -20 -22 -20 -9 0 -13 -5 -10 -10 3 -6 -5
-14 -19 -20 -14 -5 -26 -14 -26 -20 0 -5 -6 -10 -13 -10 -8 0 -24 -9 -37 -20
-13 -11 -29 -20 -37 -20 -7 0 -13 -7 -13 -15 0 -10 -10 -15 -30 -15 -20 0 -30
-5 -30 -15 0 -8 -7 -15 -15 -15 -8 0 -15 -7 -15 -15 0 -9 -8 -19 -17 -22 -10
-4 -24 -13 -31 -20 -7 -7 -22 -13 -32 -13 -10 0 -20 -7 -24 -15 -3 -8 -12 -15
-21 -15 -8 0 -15 -6 -15 -14 0 -8 -14 -18 -31 -21 -21 -5 -27 -10 -19 -15 19
-12 -22 -22 -54 -14 -19 4 -26 13 -26 30 0 14 6 27 14 30 8 3 16 15 19 26 3
12 10 17 17 13 7 -4 14 2 17 14 3 12 9 21 14 21 4 0 13 18 19 40 6 22 15 38
20 35 4 -3 11 8 15 24 3 16 13 32 21 35 8 3 14 16 14 30 0 15 7 25 20 29 11 3
19 11 18 19 -2 10 17 14 77 18 57 4 79 9 78 18 -2 7 8 12 25 12 42 0 72 11 72
26 0 8 5 14 11 14 5 0 7 5 4 10 -3 6 1 10 10 10 9 0 13 -4 10 -10z m-4141 -65
c-5 -11 1 -15 20 -15 26 0 26 -1 26 -69 0 -46 -5 -74 -14 -83 -7 -8 -17 -28
-20 -45 -8 -37 2 -105 15 -97 5 3 9 -4 9 -14 0 -11 -7 -22 -15 -26 -8 -3 -14
-11 -13 -18 2 -7 -3 -12 -10 -10 -8 1 -16 -7 -19 -18 -5 -17 -13 -20 -67 -20
l-61 0 0 163 0 162 35 2 c19 1 47 2 62 2 23 1 28 6 33 39 8 46 13 62 19 62 3
0 3 -7 0 -15z m406 0 c0 -8 -7 -15 -15 -15 -8 0 -15 -7 -15 -15 0 -8 -7 -15
-15 -15 -8 0 -15 -7 -15 -15 0 -8 -7 -15 -15 -15 -11 0 -15 12 -15 45 l0 45
45 0 c33 0 45 -4 45 -15z m3297 -185 c2 -12 -6 -24 -18 -30 -19 -11 -20 -10
-8 12 7 13 12 24 11 26 -1 1 -2 7 -2 14 0 17 13 0 17 -22z m-44 -13 c-4 -6 -8
-25 -10 -42 -2 -16 -10 -35 -19 -42 -9 -6 -18 -30 -21 -52 -5 -33 -11 -42 -35
-50 -16 -6 -27 -15 -23 -21 3 -6 -3 -10 -15 -10 -12 0 -19 -4 -16 -9 7 -11
-18 -33 -28 -24 -4 4 -9 -3 -13 -15 -3 -12 -12 -22 -19 -22 -8 0 -14 -4 -14
-10 0 -5 -18 -28 -39 -49 -29 -29 -46 -39 -65 -37 -20 3 -26 -1 -26 -15 0 -15
-8 -19 -32 -20 -18 0 -27 -3 -20 -6 17 -7 15 -23 -3 -23 -7 0 -18 -7 -23 -15
-4 -9 -19 -17 -32 -18 -13 -1 -25 -9 -28 -19 -2 -11 -14 -18 -27 -18 -30 0
-56 -10 -51 -19 3 -4 -11 -8 -31 -9 -45 -3 -60 -12 -42 -23 10 -6 6 -9 -12 -9
-21 0 -28 6 -31 25 -4 20 -1 25 14 25 11 0 16 -4 13 -10 -4 -6 1 -7 11 -3 11
4 13 8 6 11 -18 6 -14 49 5 56 15 6 15 8 3 16 -11 7 -6 10 18 10 17 0 32 5 32
10 0 6 -9 10 -20 10 -11 0 -20 5 -20 10 0 6 -5 9 -11 8 -6 -2 -13 2 -15 7 -2
6 8 12 23 13 16 1 33 9 39 17 13 17 34 20 34 5 0 -5 -9 -15 -20 -22 -30 -19
-24 -28 20 -28 29 0 40 4 40 15 0 13 21 19 67 18 6 0 14 20 18 45 6 38 4 48
-11 59 -16 12 -15 14 14 24 18 6 32 17 32 25 0 8 9 14 20 14 11 0 20 6 20 14
0 9 12 14 36 14 29 0 42 7 70 39 19 21 34 43 34 50 0 6 14 14 30 18 17 4 28
10 25 15 -3 4 20 11 50 15 52 6 55 8 55 34 0 24 4 29 25 29 15 0 22 -5 18 -11z
m377 -244 c-1 -24 -2 -26 -11 -10 -6 9 -14 15 -20 12 -5 -4 -9 -2 -9 4 0 9 15
18 33 20 4 1 7 -11 7 -26z m-814 -84 c3 -6 1 -16 -4 -21 -13 -13 -45 8 -36 23
7 12 31 11 40 -2z m-308 -121 c3 -23 30 -43 55 -39 4 1 7 -6 7 -14 0 -10 -10
-15 -30 -15 -20 0 -30 5 -30 15 0 8 -9 24 -20 35 -11 11 -17 26 -14 35 9 23
29 12 32 -17z m102 12 c0 -11 -6 -20 -14 -20 -18 0 -29 16 -21 30 11 18 35 11
35 -10z m-336 -281 c8 -40 -5 -240 -15 -234 -15 10 -22 -18 -7 -29 8 -6 18
-28 22 -48 4 -21 11 -38 16 -38 5 0 13 -12 16 -27 4 -16 12 -31 18 -35 6 -4
12 -39 14 -77 3 -57 1 -72 -11 -77 -9 -3 -19 -19 -22 -35 -5 -23 -13 -30 -41
-35 -62 -11 -103 2 -145 46 -21 22 -42 52 -45 65 -3 14 -12 25 -20 25 -8 0
-14 7 -14 15 0 8 -7 15 -15 15 -8 0 -15 6 -15 14 0 7 -9 16 -21 19 -12 3 -18
10 -14 17 4 7 -2 14 -14 17 -12 3 -21 13 -21 24 0 11 -7 19 -16 19 -8 0 -12 5
-9 11 4 6 -2 13 -14 16 -15 4 -21 13 -21 34 0 28 2 29 45 29 35 0 45 4 45 16
0 9 9 18 20 21 11 3 20 9 20 15 0 5 13 22 30 38 16 16 32 40 36 54 3 14 12 26
20 26 8 0 14 7 14 15 0 8 7 15 15 15 8 0 15 7 15 15 0 8 7 15 15 15 9 0 18 6
21 14 3 8 19 19 35 25 16 5 29 15 29 20 0 25 28 8 34 -20z m-2239 -149 c-3 -5
-10 -10 -16 -10 -5 0 -9 5 -9 10 0 6 7 10 16 10 8 0 12 -4 9 -10z m1200 -30
c0 -8 -13 -17 -30 -20 -16 -4 -29 -11 -27 -18 1 -7 -6 -12 -16 -12 -9 0 -23
-9 -30 -20 -7 -11 -23 -20 -37 -20 -16 0 -25 -6 -25 -15 0 -9 -9 -15 -24 -15
-13 0 -27 -6 -29 -12 -3 -7 -6 -1 -6 15 -1 18 4 27 14 27 9 0 18 7 21 15 3 8
15 17 26 21 11 3 34 21 50 38 24 27 36 32 71 31 29 -1 42 -5 42 -15z m175 1
c0 -10 -58 -23 -71 -15 -5 3 -7 10 -4 15 8 11 75 12 75 0z m58 -9 c2 -7 -3
-12 -12 -12 -9 0 -16 7 -16 16 0 17 22 14 28 -4z m-165 1 c-7 -2 -19 -2 -25 0
-7 3 -2 5 12 5 14 0 19 -2 13 -5z m-333 -63 c0 -5 -4 -10 -10 -10 -5 0 -10 5
-10 10 0 6 5 10 10 10 6 0 10 -4 10 -10z m-1388 -390 c10 0 19 -12 23 -30 4
-17 13 -30 22 -30 9 0 13 -7 11 -17 -2 -10 -9 -17 -15 -16 -6 1 -13 -24 -17
-58 -4 -33 -11 -57 -16 -54 -5 3 -11 1 -14 -4 -3 -5 3 -11 14 -14 11 -3 20
-12 20 -21 0 -13 11 -16 50 -16 38 0 50 -4 50 -15 0 -8 7 -15 15 -15 8 0 15
-5 15 -10 0 -16 48 -31 76 -24 13 3 24 12 24 20 0 8 6 14 14 14 8 0 17 14 21
30 6 26 11 30 41 30 19 0 34 -4 34 -10 0 -5 5 -10 11 -10 5 0 7 5 4 10 -3 6 1
10 9 10 9 0 16 -5 16 -10 0 -6 10 -14 23 -19 21 -8 24 -17 26 -70 l2 -61 -298
1 c-164 1 -288 4 -275 6 12 2 22 11 22 19 0 8 3 13 8 11 4 -3 16 -1 27 4 15 6
10 8 -22 8 -32 1 -43 -3 -46 -16 -7 -29 -14 296 -7 364 0 2 26 1 58 -2 31 -2
65 -4 74 -5z m2671 -17 c-7 -2 -19 -2 -25 0 -7 3 -2 5 12 5 14 0 19 -2 13 -5z
m-23 -65 c0 -5 -4 -6 -10 -3 -5 3 -10 -4 -10 -15 0 -13 -8 -24 -19 -27 -11 -3
-22 -11 -25 -19 -6 -16 -26 -19 -26 -4 0 12 39 71 54 82 12 8 36 -1 36 -14z
m-2590 -790 c168 -40 288 -150 347 -320 22 -62 26 -90 26 -188 0 -98 -4 -126
-26 -188 -60 -171 -171 -278 -342 -327 -83 -24 -257 -17 -338 15 -130 50 -244
171 -288 308 -33 102 -37 247 -9 348 28 105 62 163 130 228 83 80 163 116 310
140 34 6 135 -3 190 -16z m3815 7 c152 -27 274 -110 348 -236 38 -64 67 -187
67 -279 0 -314 -209 -530 -514 -530 -242 0 -425 135 -492 365 -25 87 -23 258
5 346 61 192 210 312 426 342 57 8 73 7 160 -8z m-2687 -132 l3 -113 -193 -2
-193 -3 -3 -82 -3 -83 178 -2 178 -3 0 -110 0 -110 -177 -3 -178 -2 0 -190 0
-190 -125 0 -125 0 0 505 0 505 318 -2 317 -3 3 -112z m742 2 l0 -115 -190 0
-190 0 0 -85 0 -85 175 0 175 0 0 -115 0 -115 -175 0 -175 0 -2 -187 -3 -188
-122 -3 -123 -3 0 506 0 505 315 0 315 0 0 -115z m992 104 c159 -34 244 -126
256 -275 5 -73 -15 -150 -55 -202 -23 -31 -91 -86 -115 -94 -6 -2 41 -95 106
-205 64 -111 116 -207 116 -212 0 -7 -49 -11 -143 -11 l-142 0 -100 195 c-92
180 -102 195 -125 193 l-25 -3 -1 -190 -1 -190 -122 -3 -121 -3 0 506 0 505
210 0 c118 0 232 -5 262 -11z m2006 -71 c17 -46 70 -182 117 -303 159 -406
235 -603 235 -614 0 -8 -41 -11 -136 -9 l-136 3 -35 92 -36 93 -167 0 -168 0
-33 -95 -32 -95 -135 0 -134 0 6 24 c5 22 68 184 293 751 41 105 79 200 84
213 8 21 13 22 127 22 l119 0 31 -82z m934 59 c32 -9 79 -27 105 -39 58 -27
162 -128 192 -185 49 -98 66 -281 36 -396 -46 -175 -179 -302 -365 -348 -38
-9 -125 -14 -280 -14 l-225 0 -3 490 c-1 270 0 496 3 503 8 21 459 11 537 -11z
m-3524 -609 l-3 -103 -177 -3 -178 -2 0 105 0 105 180 0 181 0 -3 -102z"/>
<path d="M7728 9144 c-159 -38 -275 -159 -309 -322 -16 -78 -6 -213 21 -283
62 -161 199 -258 379 -267 267 -14 462 175 461 446 0 71 -22 167 -52 224 -29
56 -111 137 -168 167 -91 47 -225 62 -332 35z m228 -167 c45 -23 93 -76 117
-127 17 -35 21 -65 21 -135 0 -103 -19 -157 -75 -214 -48 -48 -103 -71 -174
-71 -71 0 -126 23 -174 71 -57 56 -76 111 -76 214 0 78 4 97 28 147 28 56 70
97 129 124 42 18 161 14 204 -9z"/>
<path d="M7772 8957 c-94 -36 -145 -118 -146 -238 -1 -65 3 -83 29 -134 41
-81 91 -116 176 -122 59 -4 68 -2 119 29 77 47 112 116 113 221 0 103 -36 179
-106 221 -55 34 -132 43 -185 23z"/>
<path d="M500 8716 l0 -426 158 0 c188 0 266 11 349 50 125 58 201 160 223
303 29 181 -39 350 -173 425 -88 51 -153 63 -364 69 l-193 6 0 -427z m416 245
c101 -45 144 -118 144 -246 0 -185 -106 -275 -322 -275 l-78 0 0 276 0 277
103 -5 c76 -4 117 -12 153 -27z"/>
<path d="M695 8949 c-3 -8 -4 -118 -3 -244 l3 -230 70 1 c93 2 148 18 191 56
57 50 68 81 68 183 0 102 -11 133 -68 183 -41 35 -80 48 -183 58 -58 5 -74 4
-78 -7z"/>
<path d="M1406 9124 c-8 -20 -8 -798 0 -818 5 -13 22 -16 85 -16 l79 0 0 425
0 425 -79 0 c-63 0 -80 -3 -85 -16z"/>
<path d="M1780 8716 l0 -427 78 3 77 3 3 173 2 172 48 0 47 0 84 -163 c46 -89
88 -168 94 -174 11 -15 187 -18 187 -4 0 10 -140 257 -177 311 -12 19 -23 38
-23 42 0 4 19 16 43 26 91 41 132 106 132 212 -1 89 -26 144 -86 186 -71 49
-110 57 -316 62 l-193 4 0 -426z m359 270 c48 -17 74 -54 73 -107 -1 -85 -54
-117 -194 -118 l-78 -1 0 120 0 120 83 -1 c45 0 98 -6 116 -13z"/>
<path d="M1980 8962 c-6 -2 -10 -41 -10 -88 l0 -84 53 0 c109 0 162 34 155
101 -5 48 -40 69 -121 72 -37 1 -72 1 -77 -1z"/>
<path d="M2467 9134 c-4 -4 -7 -38 -7 -76 l0 -68 120 0 120 0 0 -350 0 -350
80 0 80 0 0 350 0 350 120 0 121 0 -3 73 -3 72 -310 3 c-171 1 -314 0 -318 -4z"/>
<path d="M3400 9127 c0 -8 30 -124 66 -258 36 -134 72 -269 80 -299 8 -30 28
-106 45 -168 l31 -113 86 3 87 3 81 294 c44 162 86 297 92 299 7 2 16 -7 22
-20 9 -21 64 -216 126 -448 14 -52 28 -103 31 -113 4 -16 15 -17 91 -15 l86 3
26 95 c15 52 46 167 69 255 24 88 51 189 61 225 14 54 45 169 67 253 4 15 -5
17 -80 17 l-85 0 -41 -172 c-22 -95 -53 -228 -68 -295 -21 -93 -31 -123 -43
-123 -12 0 -31 62 -84 273 -38 149 -73 282 -77 295 -8 20 -14 22 -94 22 -80 0
-86 -2 -94 -22 -4 -13 -39 -146 -76 -295 -83 -330 -87 -334 -129 -145 -15 70
-44 201 -65 292 l-37 165 -87 3 c-70 2 -87 0 -87 -11z"/>
<path d="M4900 9121 c-5 -11 -44 -107 -85 -213 -42 -106 -84 -213 -95 -238
-47 -110 -140 -352 -140 -366 0 -12 15 -14 86 -12 l86 3 27 80 28 80 176 3
175 2 32 -85 33 -85 88 0 c49 0 89 4 89 8 0 8 -69 189 -180 467 -39 99 -83
212 -97 250 -48 130 -42 125 -133 125 -68 0 -81 -3 -90 -19z m154 -343 c31
-92 56 -170 56 -173 0 -3 -56 -5 -125 -5 -69 0 -125 3 -125 6 0 21 124 353
130 347 4 -4 33 -83 64 -175z"/>
<path d="M4946 8754 c-20 -60 -36 -112 -36 -117 0 -4 34 -7 75 -7 54 0 75 4
75 13 0 14 -56 182 -69 204 -6 11 -19 -15 -45 -93z"/>
<path d="M5520 8716 l0 -426 80 0 80 0 0 175 0 175 49 0 48 0 74 -142 c41 -79
81 -156 89 -173 15 -30 16 -30 108 -33 65 -2 92 1 92 9 0 6 -31 64 -68 128
-38 64 -83 142 -101 173 l-32 57 43 19 c92 41 133 106 133 212 0 120 -47 185
-160 226 -39 14 -92 18 -242 22 l-193 4 0 -426z m359 271 c47 -17 74 -55 73
-108 -1 -85 -53 -117 -189 -118 l-83 -1 0 120 0 120 83 -1 c45 0 97 -5 116
-12z"/>
<path d="M5714 8956 c-3 -7 -4 -46 -2 -87 l3 -74 47 -3 c64 -4 125 14 144 43
22 34 14 84 -16 106 -31 23 -169 34 -176 15z"/>
<path d="M6300 8715 l0 -426 78 3 77 3 3 173 2 172 48 0 47 0 84 -163 c46 -89
88 -168 94 -174 11 -15 187 -18 187 -4 0 5 -45 86 -100 181 -55 94 -100 173
-100 175 0 2 20 13 45 25 80 39 135 122 135 206 0 51 -28 127 -58 161 -66 72
-153 93 -384 93 l-158 0 0 -425z m384 262 c33 -22 49 -53 49 -97 0 -82 -62
-120 -193 -120 l-80 0 0 121 0 122 99 -5 c69 -3 107 -10 125 -21z"/>
<path d="M6497 8963 c-4 -3 -7 -44 -7 -90 l0 -83 53 0 c109 0 162 34 155 101
-4 47 -39 67 -124 74 -39 2 -74 2 -77 -2z"/>
<path d="M7080 9136 c-3 -2 -4 -194 -2 -425 l2 -421 80 0 80 0 -2 423 -3 422
-75 3 c-42 1 -78 1 -80 -2z"/>
<path d="M8450 8715 l0 -425 80 0 80 0 0 175 0 175 48 0 47 0 90 -175 90 -175
93 0 c50 0 92 3 92 8 0 4 -45 85 -100 181 -55 96 -99 175 -98 176 2 1 27 15
56 30 158 85 161 323 4 408 -64 35 -148 47 -329 47 l-153 0 0 -425z m352 275
c49 -14 78 -52 78 -102 0 -91 -55 -128 -190 -128 l-80 0 0 120 0 120 78 0 c42
0 94 -5 114 -10z"/>
<path d="M8688 8962 l-48 -3 0 -86 0 -86 74 5 c83 5 122 24 132 63 20 78 -36
116 -158 107z"/>
<path d="M7323 7233 c-29 -3 -43 -9 -43 -19 0 -11 14 -14 60 -14 33 0 60 4 60
8 0 10 -22 33 -29 30 -4 -1 -25 -3 -48 -5z"/>
<path d="M6118 5953 c-10 -3 -18 -9 -18 -14 0 -12 37 -12 45 0 7 12 -5 19 -27
14z"/>
<path d="M6020 5881 c0 -6 4 -12 8 -15 13 -8 52 5 46 15 -7 12 -54 12 -54 0z"/>
<path d="M5980 5845 c0 -8 9 -15 20 -15 11 0 20 7 20 15 0 8 -9 15 -20 15 -11
0 -20 -7 -20 -15z"/>
<path d="M5917 5800 c-4 -14 1 -25 14 -33 10 -6 19 -18 19 -25 0 -10 13 -13
48 -11 46 3 59 13 61 47 1 18 -65 16 -73 -3 -7 -19 -30 -19 -46 0 -10 12 -7
15 14 21 35 8 33 24 -3 24 -20 0 -30 -6 -34 -20z"/>
<path d="M5887 5724 c-13 -13 -7 -24 14 -24 11 0 19 5 17 12 -5 14 -22 21 -31
12z"/>
<path d="M6113 5608 c1 -8 -11 -14 -30 -16 -29 -3 -33 -7 -33 -32 0 -16 -7
-33 -16 -38 -10 -5 -17 -23 -18 -41 -1 -20 -5 -30 -13 -26 -16 5 -18 -51 -3
-60 6 -3 10 -1 10 6 0 15 42 59 58 59 6 0 12 7 12 15 0 8 6 15 14 15 8 0 17
14 21 31 4 17 13 33 21 36 8 3 14 18 14 34 0 22 -5 29 -20 29 -11 0 -19 -6
-17 -12z"/>
<path d="M6413 5580 c-3 -11 -12 -20 -19 -20 -8 0 -14 -9 -14 -19 0 -11 -7
-26 -15 -35 -8 -8 -15 -22 -15 -30 0 -9 7 -16 15 -16 10 0 15 10 15 33 0 24 3
28 10 17 9 -13 11 -13 20 0 5 8 10 23 10 33 0 9 7 17 15 17 20 0 19 26 -1 34
-11 4 -18 -1 -21 -14z"/>
<path d="M5822 5581 c2 -7 7 -12 11 -12 12 1 9 15 -3 20 -7 2 -11 -2 -8 -8z"/>
<path d="M5983 5578 c1 -7 -8 -14 -20 -16 -13 -2 -23 -10 -23 -18 0 -8 -4 -14
-10 -14 -5 0 -9 6 -7 13 1 7 -11 13 -30 15 -29 3 -33 0 -41 -30 -5 -18 -14
-32 -21 -30 -6 1 -11 -7 -11 -18 0 -13 10 -22 33 -29 22 -6 26 -10 12 -11 -17
-2 -16 -3 5 -9 29 -9 52 -3 44 11 -3 5 3 12 15 15 12 3 21 12 21 20 0 9 6 13
15 9 10 -3 15 1 15 14 0 10 7 25 15 33 8 8 11 17 8 21 -4 3 -1 6 5 6 7 0 12 7
12 15 0 8 -9 15 -20 15 -11 0 -19 -6 -17 -12z"/>
<path d="M6220 5575 c0 -8 -9 -15 -20 -15 -13 0 -20 -7 -20 -20 0 -11 -7 -20
-15 -20 -8 0 -15 -9 -15 -19 0 -11 -7 -26 -15 -35 -8 -8 -18 -29 -21 -45 -6
-27 -4 -31 15 -31 14 0 21 6 21 20 0 16 7 20 30 20 23 0 30 -4 30 -20 0 -12 7
-20 18 -20 20 0 52 33 52 54 0 7 9 16 21 19 14 4 20 13 19 29 -4 48 0 68 15
68 8 0 15 7 15 15 0 12 -14 15 -65 15 -51 0 -65 -3 -65 -15z m63 -77 c8 -28 1
-38 -25 -38 -14 0 -18 5 -14 16 3 9 6 22 6 30 0 22 27 16 33 -8z m-41 -53 c0
-5 -5 -11 -11 -13 -6 -2 -11 4 -11 13 0 9 5 15 11 13 6 -2 11 -8 11 -13z"/>
<path d="M6638 5436 c-19 -14 -22 -51 -9 -96 7 -24 7 -24 14 9 4 18 7 47 7 63
0 16 4 27 9 23 5 -3 12 -1 16 5 9 14 -17 12 -37 -4z"/>
<path d="M6078 5413 c7 -3 16 -2 19 1 4 3 -2 6 -13 5 -11 0 -14 -3 -6 -6z"/>
<path d="M6180 5375 c0 -10 7 -15 18 -13 21 4 19 22 -2 26 -10 2 -16 -3 -16
-13z"/>
<path d="M4174 5372 c6 -10 73 -8 83 2 3 3 -15 6 -41 6 -26 0 -45 -4 -42 -8z"/>
<path d="M3816 5345 c-4 -12 5 -15 49 -15 42 0 55 3 55 15 0 11 -12 15 -49 15
-34 0 -51 -4 -55 -15z"/>
<path d="M3752 5293 c4 -32 28 -44 28 -14 0 15 6 21 21 21 11 0 17 5 14 10 -3
6 -20 10 -36 10 -27 0 -30 -3 -27 -27z"/>
<path d="M3650 5275 c0 -8 7 -16 15 -16 8 -1 21 -2 28 -3 6 0 17 -15 22 -32 6
-17 15 -29 23 -27 7 3 12 -4 12 -16 0 -14 6 -21 20 -21 11 0 20 -7 20 -15 0
-8 9 -15 20 -15 13 0 18 5 14 15 -4 8 -12 15 -20 15 -8 0 -14 7 -14 15 0 8 -9
24 -20 35 -11 11 -20 23 -20 28 0 4 -11 17 -24 30 -27 25 -76 30 -76 7z"/>
<path d="M3854 5126 c-5 -21 -34 -40 -56 -37 -5 1 -8 -6 -8 -14 0 -8 -9 -15
-20 -15 -27 0 -25 -26 3 -34 37 -10 47 -7 47 14 0 11 7 20 15 20 8 0 15 7 15
15 0 8 9 15 20 15 11 0 20 5 20 11 0 5 5 7 10 4 21 -13 8 11 -15 28 -24 17
-25 17 -31 -7z"/>
<path d="M3700 5010 c0 -5 5 -10 10 -10 6 0 10 5 10 10 0 6 -4 10 -10 10 -5 0
-10 -4 -10 -10z"/>
<path d="M3908 4993 c-16 -3 -28 -11 -28 -19 0 -10 13 -14 50 -14 38 0 50 4
50 15 0 8 -4 15 -9 15 -5 0 -15 2 -23 3 -7 2 -25 2 -40 0z"/>
<path d="M3510 4975 c0 -13 -18 -20 -42 -16 -8 1 -9 -7 -12 -66 -1 -28 0 -28
62 -29 46 -1 62 2 62 12 0 8 -6 14 -14 14 -16 0 -28 51 -15 65 17 17 9 35 -16
35 -16 0 -25 -6 -25 -15z m12 -60 c-3 -16 -11 -25 -23 -25 -28 0 -25 37 4 43
12 2 23 5 23 6 1 0 -1 -10 -4 -24z"/>
<path d="M3570 4982 c0 -15 11 -21 27 -15 12 5 12 7 1 14 -17 11 -28 11 -28 1z"/>
<path d="M3823 4953 c-20 -7 -15 -23 7 -23 11 0 20 4 20 9 0 13 -12 19 -27 14z"/>
<path d="M3750 4910 c0 -19 -40 -50 -65 -50 -30 0 -32 -13 -5 -40 26 -26 26
-26 39 10 5 17 15 30 20 30 6 0 11 7 11 15 0 8 7 15 15 15 8 0 15 7 15 15 0 8
-7 15 -15 15 -8 0 -15 -4 -15 -10z"/>
<path d="M6726 4833 c-10 -26 -6 -43 9 -43 8 0 15 -7 15 -15 0 -8 7 -15 15
-15 23 0 18 36 -9 63 -20 20 -26 22 -30 10z"/>
<path d="M6195 4809 c-4 -6 -5 -12 -2 -15 2 -3 7 2 10 11 7 17 1 20 -8 4z"/>
<path d="M5180 4775 c0 -8 9 -15 20 -15 11 0 20 7 20 15 0 8 -9 15 -20 15 -11
0 -20 -7 -20 -15z"/>
<path d="M6231 4774 c0 -11 3 -14 6 -6 3 7 2 16 -1 19 -3 4 -6 -2 -5 -13z"/>
<path d="M6520 4776 c0 -8 7 -16 15 -20 8 -3 15 -12 15 -21 0 -8 6 -14 13 -12
6 1 11 -4 10 -10 -2 -7 6 -13 17 -13 11 0 20 5 20 10 0 6 -7 10 -15 10 -8 0
-15 9 -15 20 0 11 -7 20 -15 20 -8 0 -15 7 -15 15 0 8 -7 15 -15 15 -8 0 -15
-6 -15 -14z"/>
<path d="M7355 5349 c-10 -15 3 -25 16 -12 7 7 7 13 1 17 -6 3 -14 1 -17 -5z"/>
<path d="M1963 4459 c-18 -18 -17 -69 2 -69 8 0 15 -7 15 -15 0 -8 9 -15 20
-15 11 0 20 -6 20 -14 0 -14 77 -28 111 -19 24 7 25 33 2 33 -14 0 -15 2 -5 9
17 11 -6 21 -48 21 -15 0 -30 6 -33 14 -3 8 -18 16 -34 18 -19 2 -29 10 -33
26 -4 18 -7 21 -17 11z"/>
<path d="M2290 4345 c0 -9 5 -15 11 -13 6 2 11 8 11 13 0 5 -5 11 -11 13 -6 2
-11 -4 -11 -13z"/>
<path d="M7278 4461 c-16 -9 -28 -19 -28 -23 0 -15 51 -8 56 7 10 26 0 32 -28
16z"/>
<path d="M7507 4452 c-21 -23 -22 -62 -2 -62 8 0 15 -4 15 -10 0 -16 48 -11
58 6 14 26 2 65 -25 75 -31 11 -27 12 -46 -9z"/>
<path d="M7355 4408 c-4 -10 -4 -26 0 -35 6 -17 7 -17 16 0 7 11 7 23 0 35 -9
16 -10 16 -16 0z"/>
<path d="M7600 4380 c0 -5 5 -10 11 -10 5 0 7 5 4 10 -3 6 -8 10 -11 10 -2 0
-4 -4 -4 -10z"/>
<path d="M7676 4381 c-18 -7 -18 -8 -3 -14 9 -3 17 -14 17 -22 0 -9 5 -13 10
-10 12 7 14 55 3 54 -5 0 -17 -4 -27 -8z"/>
<path d="M7390 4310 c0 -6 7 -10 15 -10 8 0 15 2 15 4 0 2 -7 6 -15 10 -8 3
-15 1 -15 -4z"/>
<path d="M7645 4180 c-3 -5 -3 -11 2 -11 4 -1 22 -3 38 -5 28 -3 29 -2 11 12
-23 16 -42 18 -51 4z"/>
<path d="M6490 4110 c0 -5 5 -10 10 -10 6 0 10 5 10 10 0 6 -4 10 -10 10 -5 0
-10 -4 -10 -10z"/>
<path d="M6952 4108 c6 -18 28 -21 28 -4 0 9 -7 16 -16 16 -9 0 -14 -5 -12
-12z"/>
<path d="M6985 4079 c-10 -15 1 -23 20 -15 9 3 13 10 10 16 -8 13 -22 13 -30
-1z"/>
<path d="M7026 4053 c-11 -11 -6 -23 9 -23 8 0 15 4 15 9 0 13 -16 22 -24 14z"/>
<path d="M7060 4015 c0 -8 5 -15 10 -15 6 0 10 7 10 15 0 8 -4 15 -10 15 -5 0
-10 -7 -10 -15z"/>
<path d="M7090 4010 c0 -5 5 -10 10 -10 6 0 10 5 10 10 0 6 -4 10 -10 10 -5 0
-10 -4 -10 -10z"/>
<path d="M7120 3975 c0 -8 7 -15 15 -15 8 0 15 7 15 15 0 8 -7 15 -15 15 -8 0
-15 -7 -15 -15z"/>
<path d="M7217 3946 c-3 -8 1 -17 9 -20 22 -9 23 -8 21 14 -1 23 -22 27 -30 6z"/>
<path d="M6655 3920 c-7 -12 2 -30 16 -30 12 0 12 27 0 35 -5 3 -12 1 -16 -5z"/>
<path d="M7251 3917 c-12 -15 -5 -27 16 -27 7 0 13 9 13 20 0 23 -13 26 -29 7z"/>
<path d="M7285 3881 c-8 -14 8 -21 34 -14 17 4 19 8 9 14 -17 11 -35 11 -43 0z"/>
<path d="M7355 3849 c-4 -6 -5 -13 -2 -16 7 -7 27 6 27 18 0 12 -17 12 -25 -2z"/>
<path d="M7408 3823 c-25 -6 -22 -20 4 -27 25 -6 44 7 34 23 -7 11 -10 12 -38
4z"/>
<path d="M7185 3761 c-8 -39 3 -91 21 -98 8 -3 14 -12 14 -20 0 -25 25 -8 28
19 2 19 -2 27 -19 31 -15 4 -20 11 -15 22 3 9 6 23 6 31 0 8 7 14 16 14 26 0
10 25 -18 28 -22 3 -27 -2 -33 -27z"/>
<path d="M7450 3743 c0 -57 16 -91 24 -52 9 45 3 99 -11 99 -9 0 -13 -15 -13
-47z"/>
<path d="M7285 3721 c-3 -6 -4 -28 -3 -50 3 -35 7 -41 30 -46 38 -9 98 4 98
22 0 8 -5 11 -11 8 -6 -4 -13 2 -16 13 -5 20 -33 39 -33 23 0 -4 -7 -8 -15 -8
-9 0 -15 10 -15 24 0 23 -23 32 -35 14z"/>
<path d="M6691 3674 c0 -11 3 -14 6 -6 3 7 2 16 -1 19 -3 4 -6 -2 -5 -13z"/>
<path d="M7480 3630 c0 -18 -6 -33 -15 -36 -25 -10 -18 -37 8 -30 12 3 27 6
32 7 6 0 1 4 -10 9 -17 7 -17 9 -2 9 23 1 25 71 2 71 -10 0 -15 -10 -15 -30z"/>
<path d="M7250 3610 c0 -11 7 -20 15 -20 8 0 15 -7 15 -15 0 -17 36 -20 59 -6
12 8 9 12 -15 23 -16 7 -33 18 -37 25 -12 20 -37 15 -37 -7z"/>
<path d="M7345 3551 c3 -5 -3 -12 -12 -14 -10 -3 5 -5 33 -6 39 -1 51 2 51 14
0 11 -11 15 -39 15 -22 0 -37 -4 -33 -9z"/>
<path d="M7020 3370 c0 -5 7 -7 15 -4 8 4 15 8 15 10 0 2 -7 4 -15 4 -8 0 -15
-4 -15 -10z"/>
<path d="M6296 3553 c-11 -11 -6 -23 9 -23 8 0 15 4 15 9 0 13 -16 22 -24 14z"/>
<path d="M6220 3440 c0 -5 5 -10 10 -10 6 0 10 5 10 10 0 6 -4 10 -10 10 -5 0
-10 -4 -10 -10z"/>
<path d="M5661 3216 c-9 -10 -8 -15 4 -20 10 -4 15 1 15 14 0 24 -4 25 -19 6z"/>
<path d="M5957 3014 c-4 -4 -4 -10 -1 -15 6 -10 34 0 34 12 0 10 -24 12 -33 3z"/>
<path d="M4925 3810 c3 -5 8 -10 11 -10 2 0 4 5 4 10 0 6 -5 10 -11 10 -5 0
-7 -4 -4 -10z"/>
<path d="M4820 3775 c0 -8 -9 -15 -20 -15 -11 0 -20 -7 -20 -15 0 -8 9 -15 20
-15 11 0 20 6 20 14 0 8 7 16 15 20 8 3 15 10 15 16 0 5 -7 10 -15 10 -8 0
-15 -7 -15 -15z"/>
<path d="M4720 3711 c0 -14 5 -18 20 -14 16 4 18 8 9 19 -16 20 -29 17 -29 -5z"/>
<path d="M4903 3723 c-13 -2 -23 -11 -23 -19 0 -8 -7 -14 -15 -14 -8 0 -15 -4
-15 -10 0 -5 -6 -10 -13 -10 -7 0 -23 -9 -35 -20 -12 -11 -35 -20 -52 -20 -23
0 -33 -6 -39 -22 -5 -13 -11 -22 -15 -20 -19 7 -46 0 -46 -13 0 -8 -9 -15 -20
-15 -17 0 -20 -7 -20 -44 0 -25 -5 -48 -12 -52 -7 -5 -9 -2 -6 7 3 9 -3 26
-13 40 l-19 24 -6 -22 c-5 -17 -14 -23 -35 -23 -17 0 -32 -6 -35 -15 -4 -8
-18 -15 -34 -15 -19 0 -29 -6 -33 -20 -3 -13 -14 -20 -30 -20 -14 0 -27 -7
-31 -15 -3 -8 -12 -15 -21 -15 -8 0 -15 -7 -15 -15 0 -11 -12 -15 -50 -15
l-50 0 0 -50 c0 -36 -4 -50 -14 -50 -18 0 -31 -50 -16 -64 8 -8 15 -7 23 5 7
8 20 18 30 22 9 3 17 13 17 22 0 8 3 14 8 14 26 -4 52 3 52 15 0 8 13 17 29
21 16 3 32 13 35 21 3 8 19 14 36 14 20 0 30 5 30 15 0 8 7 15 15 15 9 0 18 7
21 15 4 9 19 15 35 15 18 0 29 5 29 14 0 11 18 21 50 26 3 1 8 10 12 20 5 13
13 18 24 13 13 -5 15 -3 9 7 -6 10 -4 12 8 7 8 -3 21 1 27 9 7 8 19 14 26 14
21 0 17 21 -6 27 -11 3 -20 10 -20 17 0 6 -5 4 -10 -4 -8 -13 -10 -12 -10 3 0
15 5 17 29 12 17 -3 32 -2 36 5 3 5 11 8 16 4 6 -4 6 -11 -2 -20 -9 -11 -7
-14 15 -14 16 0 26 5 26 15 0 8 9 15 20 15 11 0 20 7 20 15 0 10 10 15 29 15
20 0 30 6 34 20 4 15 14 20 37 20 31 0 31 0 28 47 -3 48 -8 53 -45 46z m-156
-139 c-3 -3 -12 -4 -19 -1 -8 3 -5 6 6 6 11 1 17 -2 13 -5z"/>
<path d="M4680 3681 c0 -5 7 -11 15 -15 9 -3 15 0 15 9 0 8 -7 15 -15 15 -8 0
-15 -4 -15 -9z"/>
<path d="M4626 3653 c-11 -11 -6 -23 9 -23 8 0 15 4 15 9 0 13 -16 22 -24 14z"/>
<path d="M4550 3610 c0 -5 7 -10 15 -10 8 0 15 5 15 10 0 6 -7 10 -15 10 -8 0
-15 -4 -15 -10z"/>
<path d="M5025 3610 c3 -5 11 -10 16 -10 6 0 7 5 4 10 -3 6 -11 10 -16 10 -6
0 -7 -4 -4 -10z"/>
<path d="M4490 3576 c0 -9 7 -16 16 -16 9 0 14 5 12 12 -6 18 -28 21 -28 4z"/>
<path d="M4970 3586 c0 -2 7 -6 15 -10 8 -3 15 -1 15 4 0 6 -7 10 -15 10 -8 0
-15 -2 -15 -4z"/>
<path d="M4437 3553 c-24 -6 -11 -23 19 -23 15 0 24 6 24 15 0 15 -9 17 -43 8z"/>
<path d="M4900 3540 c0 -5 5 -10 11 -10 5 0 7 5 4 10 -3 6 -8 10 -11 10 -2 0
-4 -4 -4 -10z"/>
<path d="M4855 3510 c3 -5 10 -10 16 -10 5 0 9 5 9 10 0 6 -7 10 -16 10 -8 0
-12 -4 -9 -10z"/>
<path d="M4990 3510 c0 -5 5 -10 10 -10 6 0 10 5 10 10 0 6 -4 10 -10 10 -5 0
-10 -4 -10 -10z"/>
<path d="M4321 3474 c0 -11 3 -14 6 -6 3 7 2 16 -1 19 -3 4 -6 -2 -5 -13z"/>
<path d="M4790 3474 c0 -8 5 -12 10 -9 6 4 8 11 5 16 -9 14 -15 11 -15 -7z"/>
<path d="M4985 3456 c-13 -10 -28 -11 -49 -5 -48 14 -56 11 -56 -20 0 -16 -6
-31 -15 -35 -8 -3 -15 -12 -15 -21 0 -11 -10 -15 -35 -15 -33 0 -35 -2 -36
-32 -1 -18 -1 -39 0 -45 1 -7 -6 -13 -15 -13 -12 0 -15 6 -12 25 7 35 -15 32
-52 -5 -20 -20 -39 -30 -60 -30 -19 0 -30 -5 -30 -14 0 -8 -11 -17 -25 -20
-18 -5 -27 -15 -32 -36 -6 -30 -33 -43 -33 -15 0 26 -25 16 -37 -15 -8 -21
-18 -30 -35 -30 -37 0 -68 -11 -62 -22 3 -5 -3 -12 -15 -15 -12 -3 -21 -12
-21 -19 0 -8 -7 -14 -15 -14 -10 0 -15 -11 -15 -35 0 -29 -4 -35 -21 -35 -17
0 -20 5 -17 38 2 21 8 37 16 37 28 0 15 20 -15 23 -25 2 -33 -1 -33 -12 0 -9
-9 -16 -20 -16 -11 0 -20 -6 -20 -14 0 -8 -7 -16 -15 -20 -11 -4 -15 -22 -15
-71 0 -36 4 -65 9 -65 5 0 7 -10 4 -22 -4 -22 -3 -22 11 2 8 14 15 33 16 44 0
14 5 17 23 12 31 -7 67 3 67 20 0 9 11 14 31 14 18 0 28 4 24 10 -4 6 7 16 24
23 17 7 28 16 24 20 -3 4 3 7 15 7 15 0 22 6 22 20 0 16 7 20 35 20 24 0 35 5
35 15 0 10 11 15 35 15 25 0 35 4 35 16 0 8 4 13 9 10 5 -3 21 6 35 19 15 14
38 25 52 25 15 0 24 6 24 16 0 12 7 15 29 12 24 -3 32 0 40 19 6 13 16 21 22
18 6 -4 13 2 16 14 3 12 12 21 19 21 8 0 14 6 14 14 0 8 13 17 29 21 16 3 32
13 35 21 3 8 15 14 26 14 11 0 20 7 20 15 0 8 5 15 10 15 6 0 10 5 10 10 0 6
9 19 20 30 35 35 22 83 -15 56z"/>
<path d="M4287 3453 c-12 -11 -8 -23 8 -23 8 0 15 7 15 15 0 16 -12 20 -23 8z"/>
<path d="M4725 3440 c4 -6 11 -8 16 -5 14 9 11 15 -7 15 -8 0 -12 -5 -9 -10z"/>
<path d="M4220 3410 c0 -6 7 -10 15 -10 8 0 15 2 15 4 0 2 -7 6 -15 10 -8 3
-15 1 -15 -4z"/>
<path d="M4690 3410 c0 -5 5 -10 11 -10 5 0 7 5 4 10 -3 6 -8 10 -11 10 -2 0
-4 -4 -4 -10z"/>
<path d="M3190 3376 c0 -9 5 -16 10 -16 6 0 10 4 10 9 0 6 -4 13 -10 16 -5 3
-10 -1 -10 -9z"/>
<path d="M4620 3375 c0 -8 7 -15 15 -15 8 0 15 7 15 15 0 8 -7 15 -15 15 -8 0
-15 -7 -15 -15z"/>
<path d="M4490 3304 c0 -11 5 -14 16 -10 9 3 23 6 32 6 15 0 15 2 2 10 -23 15
-50 12 -50 -6z"/>
<path d="M4455 3279 c-9 -14 -2 -20 14 -10 8 6 9 11 3 15 -6 3 -14 1 -17 -5z"/>
<path d="M3890 3245 c0 -8 5 -15 10 -15 6 0 10 7 10 15 0 8 -4 15 -10 15 -5 0
-10 -7 -10 -15z"/>
<path d="M4345 3210 c-3 -5 3 -10 14 -10 12 0 21 5 21 10 0 6 -6 10 -14 10 -8
0 -18 -4 -21 -10z"/>
<path d="M4226 3151 c-4 -5 -2 -12 3 -15 5 -4 12 -2 15 3 4 5 2 12 -3 15 -5 4
-12 2 -15 -3z"/>
<path d="M3960 3080 c0 -5 5 -10 10 -10 6 0 10 5 10 10 0 6 -4 10 -10 10 -5 0
-10 -4 -10 -10z"/>
<path d="M3987 3045 c-8 -19 13 -31 23 -14 9 14 4 29 -10 29 -4 0 -10 -7 -13
-15z"/>
<path d="M3680 2975 c0 -8 -5 -15 -10 -15 -6 0 -23 -12 -38 -27 -15 -16 -39
-34 -54 -40 -22 -10 -28 -19 -28 -43 0 -24 4 -30 21 -30 11 0 17 -4 14 -10 -3
-5 1 -10 9 -10 8 0 19 6 23 14 8 15 10 16 43 16 11 0 20 7 20 15 0 8 9 15 20
15 13 0 20 7 20 20 0 11 3 19 8 19 4 -1 18 -1 32 0 19 1 22 3 11 10 -12 8 -9
11 12 16 16 4 27 14 27 24 0 14 -2 14 -10 1 -8 -12 -10 -9 -10 13 0 26 -2 27
-55 27 -42 0 -55 -3 -55 -15z"/>
<path d="M3186 2951 c-11 -17 13 -61 33 -61 10 0 24 -7 31 -15 13 -15 30 -12
30 6 0 6 -5 7 -10 4 -6 -3 -14 5 -20 19 -5 15 -15 25 -22 24 -7 -2 -12 5 -10
15 3 18 -22 24 -32 8z"/>
<path d="M2560 2910 c0 -5 14 -10 31 -10 17 0 28 4 24 10 -3 6 -17 10 -31 10
-13 0 -24 -4 -24 -10z"/>
<path d="M2640 2910 c0 -5 7 -7 15 -4 8 4 15 8 15 10 0 2 -7 4 -15 4 -8 0 -15
-4 -15 -10z"/>
<path d="M3060 2910 c0 -5 5 -10 10 -10 6 0 10 5 10 10 0 6 -4 10 -10 10 -5 0
-10 -4 -10 -10z"/>
<path d="M3285 2850 c-8 -14 3 -30 21 -30 8 0 14 -7 14 -16 0 -17 22 -14 28 4
2 7 -4 12 -13 12 -9 0 -19 9 -22 20 -6 22 -18 26 -28 10z"/>
<path d="M2620 2646 c0 -12 10 -16 35 -16 19 0 35 5 35 10 0 6 -9 10 -19 10
-11 0 -26 3 -35 6 -11 4 -16 1 -16 -10z"/>
<path d="M3155 2450 c-8 -13 15 -24 27 -12 6 6 4 11 -6 15 -8 3 -18 2 -21 -3z"/>
<path d="M2600 2409 c0 -5 5 -7 10 -4 6 3 10 8 10 11 0 2 -4 4 -10 4 -5 0 -10
-5 -10 -11z"/>
<path d="M2765 2410 c-15 -6 -8 -9 28 -9 26 -1 47 4 47 9 0 12 -47 12 -75 0z"/>
<path d="M2965 2410 c-3 -5 -1 -10 4 -10 6 0 11 5 11 10 0 6 -2 10 -4 10 -3 0
-8 -4 -11 -10z"/>
<path d="M1954 2138 c3 -13 6 -27 6 -33 0 -5 5 -3 10 5 15 23 12 50 -6 50 -12
0 -15 -6 -10 -22z"/>
<path d="M1985 1910 c3 -5 12 -10 20 -10 8 0 17 5 20 10 4 6 -5 10 -20 10 -15
0 -24 -4 -20 -10z"/>
<path d="M2392 1909 c2 -6 8 -10 13 -10 5 0 11 4 13 10 2 6 -4 11 -13 11 -9 0
-15 -5 -13 -11z"/>
<path d="M1918 1843 c7 -3 16 -2 19 1 4 3 -2 6 -13 5 -11 0 -14 -3 -6 -6z"/>
<path d="M1764 1311 c-178 -51 -298 -194 -326 -389 -39 -267 106 -504 347
-567 68 -17 179 -19 245 -4 128 29 245 122 304 240 47 94 60 162 54 291 -5 99
-8 112 -47 191 -82 170 -231 258 -436 256 -44 0 -107 -8 -141 -18z m273 -184
c48 -25 96 -77 123 -133 21 -42 24 -64 25 -154 0 -95 -3 -110 -28 -162 -83
-169 -298 -211 -430 -83 -72 70 -109 199 -87 308 22 110 69 180 153 222 46 24
61 26 132 23 49 -3 93 -11 112 -21z"/>
<path d="M1831 1109 c-51 -15 -125 -95 -146 -158 -27 -82 -18 -200 21 -270 97
-179 340 -168 423 20 45 101 36 230 -22 316 -58 86 -168 122 -276 92z"/>
<path d="M5605 1306 c-131 -42 -211 -114 -273 -244 l-37 -77 0 -145 c0 -143 0
-146 33 -214 67 -142 147 -216 281 -261 222 -76 479 22 579 221 34 69 62 181
62 254 0 71 -27 185 -60 250 -34 67 -101 138 -165 176 -114 66 -288 83 -420
40z m283 -182 c97 -48 154 -151 155 -279 1 -96 -23 -171 -74 -229 -62 -70
-108 -91 -204 -91 -69 0 -86 4 -125 27 -96 56 -141 135 -148 260 -9 160 56
281 177 324 63 23 160 18 219 -12z"/>
<path d="M5663 1096 c-207 -97 -177 -480 42 -535 57 -14 71 -14 131 4 102 30
174 141 174 269 0 97 -23 160 -79 216 -75 75 -171 91 -268 46z"/>
<path d="M2580 841 l0 -470 53 -6 c28 -4 68 -5 87 -3 l35 4 3 187 2 187 175 0
175 0 0 80 0 80 -175 0 -175 0 0 120 0 120 190 0 190 0 0 79 c0 63 -3 80 -16
85 -9 3 -135 6 -280 6 l-264 0 0 -469z"/>
<path d="M3327 1304 c-9 -10 -9 -934 1 -935 4 0 16 -3 27 -5 11 -2 48 -2 83 2
l62 6 0 184 0 184 178 2 177 3 3 77 3 78 -178 2 -178 3 0 115 0 115 193 3 192
2 0 79 c0 59 -4 80 -14 84 -21 8 -541 9 -549 1z"/>
<path d="M4477 1303 c-12 -11 -8 -931 3 -938 6 -4 46 -3 90 1 l80 7 0 188 0
189 54 0 53 0 93 -182 c51 -101 96 -187 101 -192 10 -11 145 -17 185 -8 l31 7
-114 199 c-63 109 -113 199 -111 200 148 69 191 127 192 256 1 158 -90 250
-267 270 -94 11 -380 13 -390 3z m396 -167 c45 -19 68 -48 74 -95 7 -51 -11
-95 -50 -123 -25 -18 -48 -22 -139 -26 l-108 -5 0 132 0 131 95 0 c58 0 108
-5 128 -14z"/>
<path d="M4687 1113 c-7 -13 -8 -125 -1 -162 l7 -34 80 6 c91 6 126 25 141 76
15 52 -12 96 -68 110 -51 12 -153 15 -159 4z"/>
<path d="M6672 1297 c-5 -7 -58 -136 -117 -287 -60 -151 -141 -357 -180 -457
l-72 -183 88 -1 c49 -1 94 -2 101 -3 7 -1 28 43 46 97 l35 97 188 0 188 0 19
-52 c11 -29 26 -70 33 -92 19 -52 38 -59 140 -49 l85 8 -78 200 c-44 110 -108
277 -144 370 -36 94 -74 190 -84 215 -11 25 -28 68 -38 95 l-18 50 -91 2 c-60
1 -95 -3 -101 -10z m228 -579 c0 -5 -61 -8 -135 -8 -103 0 -135 3 -135 13 0 7
10 40 21 72 12 33 39 112 60 175 22 63 42 122 45 130 5 12 142 -355 144 -382z"/>
<path d="M6755 989 c-23 -63 -85 -241 -85 -244 0 -3 41 -5 90 -5 50 0 90 4 90
8 0 11 -79 244 -85 250 -2 3 -7 -1 -10 -9z"/>
<path d="M7358 1305 c-5 -5 -8 -216 -8 -471 l0 -462 97 -7 c119 -9 302 1 377
20 119 31 211 96 273 193 62 97 86 229 64 359 -31 182 -140 299 -326 348 -65
18 -464 34 -477 20z m454 -192 c104 -47 158 -140 158 -275 0 -105 -26 -174
-86 -227 -64 -56 -116 -71 -246 -71 l-108 0 0 301 0 301 118 -4 c90 -3 128 -9
164 -25z"/>
<path d="M7568 1104 c-5 -4 -8 -126 -8 -272 l0 -265 103 5 c77 4 112 10 142
25 83 44 126 114 133 219 8 129 -40 221 -139 263 -53 23 -217 41 -231 25z"/>
<path d="M4000 710 l0 -70 150 0 150 0 0 70 0 70 -150 0 -150 0 0 -70z"/>
</g>
</svg>
